<svg width="86" height="32" viewBox="0 0 86 32" fill="none" xmlns="http://www.w3.org/2000/svg">
<rect width="86" height="32" rx="16" fill="#7B1984"/>
<path d="M17.584 20L20.774 12.95H21.854L25.084 20H23.774L22.914 18.02L23.434 18.37H19.204L19.744 18.02L18.884 20H17.584ZM21.304 14.33L19.894 17.67L19.634 17.36H22.994L22.784 17.67L21.344 14.33H21.304ZM25.864 20V12.95H28.424C29.2307 12.95 29.9107 13.09 30.464 13.37C31.024 13.6433 31.4473 14.0433 31.734 14.57C32.0207 15.09 32.164 15.7233 32.164 16.47C32.164 17.21 32.0207 17.8433 31.734 18.37C31.4473 18.8967 31.024 19.3 30.464 19.58C29.9107 19.86 29.2307 20 28.424 20H25.864ZM27.154 18.93H28.344C29.1973 18.93 29.8307 18.7267 30.244 18.32C30.6573 17.9133 30.864 17.2967 30.864 16.47C30.864 15.6367 30.6573 15.02 30.244 14.62C29.8307 14.2133 29.1973 14.01 28.344 14.01H27.154V18.93ZM33.4812 20V12.95H36.0412C36.8478 12.95 37.5278 13.09 38.0812 13.37C38.6412 13.6433 39.0645 14.0433 39.3512 14.57C39.6378 15.09 39.7812 15.7233 39.7812 16.47C39.7812 17.21 39.6378 17.8433 39.3512 18.37C39.0645 18.8967 38.6412 19.3 38.0812 19.58C37.5278 19.86 36.8478 20 36.0412 20H33.4812ZM34.7712 18.93H35.9612C36.8145 18.93 37.4478 18.7267 37.8612 18.32C38.2745 17.9133 38.4812 17.2967 38.4812 16.47C38.4812 15.6367 38.2745 15.02 37.8612 14.62C37.4478 14.2133 36.8145 14.01 35.9612 14.01H34.7712V18.93ZM45.5025 20V14.01H43.1725V12.95H49.1225V14.01H46.7925V20H45.5025ZM48.4727 20L51.6627 12.95H52.7427L55.9727 20H54.6627L53.8027 18.02L54.3227 18.37H50.0927L50.6327 18.02L49.7727 20H48.4727ZM52.1927 14.33L50.7827 17.67L50.5227 17.36H53.8827L53.6727 17.67L52.2327 14.33H52.1927ZM59.1345 20.1C58.5679 20.1 58.0445 20.03 57.5645 19.89C57.0912 19.7433 56.6845 19.5433 56.3445 19.29L56.7445 18.28C56.9712 18.44 57.2079 18.5767 57.4545 18.69C57.7012 18.7967 57.9645 18.88 58.2445 18.94C58.5245 18.9933 58.8212 19.02 59.1345 19.02C59.6612 19.02 60.0412 18.9333 60.2745 18.76C60.5079 18.5867 60.6245 18.36 60.6245 18.08C60.6245 17.8333 60.5445 17.6467 60.3845 17.52C60.2245 17.3867 59.9379 17.2767 59.5245 17.19L58.3945 16.96C57.7479 16.8267 57.2645 16.6033 56.9445 16.29C56.6245 15.9767 56.4645 15.5567 56.4645 15.03C56.4645 14.59 56.5812 14.2067 56.8145 13.88C57.0479 13.5533 57.3745 13.3 57.7945 13.12C58.2145 12.94 58.7045 12.85 59.2645 12.85C59.7645 12.85 60.2279 12.9233 60.6545 13.07C61.0812 13.21 61.4379 13.4133 61.7245 13.68L61.3245 14.64C61.0379 14.4 60.7245 14.2233 60.3845 14.11C60.0445 13.99 59.6645 13.93 59.2445 13.93C58.7712 13.93 58.4012 14.0233 58.1345 14.21C57.8745 14.39 57.7445 14.64 57.7445 14.96C57.7445 15.2067 57.8245 15.4033 57.9845 15.55C58.1512 15.6967 58.4312 15.81 58.8245 15.89L59.9445 16.11C60.6112 16.2433 61.1045 16.4633 61.4245 16.77C61.7445 17.07 61.9045 17.4767 61.9045 17.99C61.9045 18.41 61.7912 18.78 61.5645 19.1C61.3379 19.4133 61.0179 19.66 60.6045 19.84C60.1912 20.0133 59.7012 20.1 59.1345 20.1ZM63.1198 20V12.95H64.4098V16.07H64.4298L67.4998 12.95H69.0598L65.3798 16.62L65.3898 16.06L69.2998 20H67.6898L64.4298 16.74H64.4098V20H63.1198Z" fill="white"/>
</svg>
