<svg width="20" height="21" viewBox="0 0 20 21" fill="none" xmlns="http://www.w3.org/2000/svg">
<path fill-rule="evenodd" clip-rule="evenodd" d="M13.5795 8.45371L9.77283 13.4537C9.61616 13.6595 9.37366 13.7812 9.11533 13.7829H9.10949C8.85366 13.7829 8.61199 13.6645 8.45366 13.4629L6.42699 10.8737C6.14366 10.512 6.20699 9.98788 6.56949 9.70454C6.93116 9.42038 7.45616 9.48371 7.73949 9.84704L9.10033 11.5854L12.2537 7.44454C12.532 7.07871 13.0545 7.00704 13.422 7.28621C13.7878 7.56538 13.8587 8.08788 13.5795 8.45371ZM10.0003 2.11621C5.39783 2.11621 1.66699 5.84704 1.66699 10.4495C1.66699 15.0512 5.39783 18.7829 10.0003 18.7829C14.6028 18.7829 18.3337 15.0512 18.3337 10.4495C18.3337 5.84704 14.6028 2.11621 10.0003 2.11621Z" fill="#A7A7A7"/>
<mask id="mask0_2048_3343" style="mask-type:luminance" maskUnits="userSpaceOnUse" x="1" y="2" width="18" height="17">
<path fill-rule="evenodd" clip-rule="evenodd" d="M13.5795 8.45371L9.77283 13.4537C9.61616 13.6595 9.37366 13.7812 9.11533 13.7829H9.10949C8.85366 13.7829 8.61199 13.6645 8.45366 13.4629L6.42699 10.8737C6.14366 10.512 6.20699 9.98788 6.56949 9.70454C6.93116 9.42038 7.45616 9.48371 7.73949 9.84704L9.10033 11.5854L12.2537 7.44454C12.532 7.07871 13.0545 7.00704 13.422 7.28621C13.7878 7.56538 13.8587 8.08788 13.5795 8.45371ZM10.0003 2.11621C5.39783 2.11621 1.66699 5.84704 1.66699 10.4495C1.66699 15.0512 5.39783 18.7829 10.0003 18.7829C14.6028 18.7829 18.3337 15.0512 18.3337 10.4495C18.3337 5.84704 14.6028 2.11621 10.0003 2.11621Z" fill="white"/>
</mask>
<g mask="url(#mask0_2048_3343)">
</g>
</svg>
