<svg width="295" height="33" viewBox="0 0 295 33" fill="none" xmlns="http://www.w3.org/2000/svg">
<path d="M5.78943 12.5244C5.35103 12.5244 4.92815 12.4565 4.52079 12.3207C4.11342 12.181 3.7565 11.9831 3.45 11.7271C3.14739 11.471 2.93207 11.1665 2.80404 10.8134L3.7177 10.4701C3.79529 10.6873 3.93884 10.8774 4.14834 11.0404C4.36172 11.1995 4.61196 11.3236 4.89905 11.4128C5.18615 11.5021 5.48294 11.5467 5.78943 11.5467C6.1386 11.5467 6.46255 11.4904 6.76129 11.3779C7.0639 11.2615 7.30832 11.1005 7.49454 10.8949C7.68077 10.6893 7.77388 10.4487 7.77388 10.1733C7.77388 9.89007 7.67689 9.65923 7.4829 9.48076C7.28892 9.29842 7.04062 9.15487 6.73801 9.05012C6.4354 8.94149 6.1192 8.85808 5.78943 8.79988C5.22688 8.70677 4.72253 8.57486 4.27637 8.40416C3.83409 8.22958 3.48298 7.9871 3.22304 7.67672C2.96699 7.36635 2.83896 6.95705 2.83896 6.44881C2.83896 5.9755 2.97474 5.56231 3.24632 5.20926C3.52178 4.85622 3.88452 4.5827 4.33456 4.38872C4.7846 4.19473 5.26956 4.09774 5.78943 4.09774C6.22008 4.09774 6.63714 4.16564 7.04062 4.30143C7.44799 4.43333 7.80685 4.62732 8.11723 4.88337C8.4276 5.13943 8.65068 5.45174 8.78647 5.82031L7.86117 6.15784C7.78358 5.9367 7.63809 5.7466 7.42471 5.58753C7.21521 5.42459 6.96691 5.30044 6.67981 5.21508C6.3966 5.12585 6.09981 5.08124 5.78943 5.08124C5.44415 5.07736 5.12213 5.13361 4.8234 5.25C4.52467 5.36639 4.28219 5.5274 4.09596 5.73302C3.90974 5.93864 3.81663 6.17724 3.81663 6.44881C3.81663 6.77471 3.90198 7.02494 4.07269 7.19953C4.24727 7.37023 4.48393 7.49826 4.78266 7.58361C5.0814 7.66897 5.41699 7.74462 5.78943 7.81057C6.31707 7.8998 6.8059 8.04141 7.25594 8.2354C7.70598 8.4255 8.06679 8.67962 8.33837 8.99775C8.61382 9.31588 8.75155 9.70772 8.75155 10.1733C8.75155 10.6466 8.61382 11.0598 8.33837 11.4128C8.06679 11.7659 7.70598 12.0394 7.25594 12.2334C6.8059 12.4274 6.31707 12.5244 5.78943 12.5244ZM13.0047 7.53124H11.6837L11.6778 12.373H10.7002L10.706 7.53124H9.70504V6.55357H10.706L10.7002 4.72625H11.6778L11.6837 6.55357H13.0047V7.53124ZM14.0479 12.373V6.55357H15.0256V7.281C15.2312 7.00942 15.4911 6.7941 15.8054 6.63504C16.1197 6.47209 16.4611 6.39062 16.8296 6.39062C17.0546 6.39062 17.2719 6.41972 17.4814 6.47791L17.0857 7.45558C16.9266 7.40515 16.7714 7.37993 16.6201 7.37993C16.3292 7.37993 16.0615 7.4517 15.817 7.59525C15.5765 7.73492 15.3845 7.92502 15.2409 8.16556C15.0974 8.4061 15.0256 8.6738 15.0256 8.96865V12.373H14.0479ZM20.4616 12.5244C19.9262 12.5244 19.4374 12.3866 18.9951 12.1112C18.5567 11.8357 18.2056 11.4671 17.9418 11.0055C17.6818 10.5399 17.5519 10.0259 17.5519 9.46331C17.5519 9.03654 17.6275 8.63888 17.7788 8.27031C17.9301 7.89787 18.1377 7.57197 18.4015 7.29264C18.6692 7.00942 18.9796 6.78828 19.3326 6.62922C19.6857 6.47015 20.062 6.39062 20.4616 6.39062C20.9 6.39062 21.3016 6.47985 21.6663 6.65832C22.0348 6.8329 22.3491 7.07732 22.609 7.39157C22.8728 7.70582 23.0687 8.07051 23.1968 8.48563C23.3287 8.90076 23.3772 9.34498 23.3423 9.81829H18.5936C18.6401 10.1481 18.7488 10.4429 18.9195 10.7029C19.0902 10.9589 19.3074 11.1626 19.5712 11.3139C19.8389 11.4652 20.1357 11.5428 20.4616 11.5467C20.8108 11.5467 21.127 11.4574 21.4102 11.279C21.6934 11.0966 21.9223 10.8483 22.0969 10.5341L23.092 10.7669C22.8592 11.2829 22.5081 11.7057 22.0387 12.0355C21.5693 12.3614 21.0436 12.5244 20.4616 12.5244ZM18.5645 9.05012H22.3588C22.3277 8.72423 22.223 8.42744 22.0445 8.15974C21.8661 7.88817 21.6391 7.67091 21.3636 7.50796C21.0882 7.34501 20.7875 7.26354 20.4616 7.26354C20.1357 7.26354 19.837 7.34307 19.5654 7.50214C19.2938 7.66121 19.0688 7.87653 18.8904 8.1481C18.7158 8.4158 18.6071 8.71647 18.5645 9.05012ZM28.9677 6.55357H29.9454V12.373H28.9677L28.927 11.3896C28.7446 11.7271 28.4924 12.0006 28.1704 12.2101C27.8523 12.4196 27.4721 12.5244 27.0298 12.5244C26.6031 12.5244 26.2034 12.4448 25.831 12.2858C25.4586 12.1228 25.1288 11.8997 24.8417 11.6165C24.5585 11.3294 24.3373 10.9996 24.1783 10.6272C24.0192 10.2548 23.9397 9.85321 23.9397 9.42257C23.9397 9.00745 24.0173 8.6156 24.1724 8.24703C24.3276 7.87847 24.543 7.55646 24.8184 7.281C25.0977 7.00166 25.4198 6.7844 25.7844 6.62922C26.1491 6.47015 26.541 6.39062 26.96 6.39062C27.4178 6.39062 27.8193 6.49925 28.1646 6.71651C28.5099 6.92989 28.7892 7.20729 29.0026 7.5487L28.9677 6.55357ZM27.0124 11.5758C27.3964 11.5758 27.7282 11.4827 28.0075 11.2964C28.2907 11.1063 28.508 10.8503 28.6593 10.5283C28.8145 10.2063 28.8921 9.85127 28.8921 9.46331C28.8921 9.06758 28.8145 8.71065 28.6593 8.39252C28.5041 8.07051 28.2849 7.81639 28.0017 7.63017C27.7223 7.44007 27.3926 7.34501 27.0124 7.34501C26.6283 7.34501 26.2791 7.44007 25.9649 7.63017C25.6506 7.82027 25.4004 8.07633 25.2141 8.39834C25.0318 8.71647 24.9406 9.07146 24.9406 9.46331C24.9406 9.85515 25.0357 10.2121 25.2258 10.5341C25.4159 10.8522 25.6681 11.1063 25.9823 11.2964C26.2966 11.4827 26.6399 11.5758 27.0124 11.5758ZM31.1085 12.373V6.55357H32.0862V7.281C32.2918 7.00942 32.5498 6.7941 32.8602 6.63504C33.1745 6.47209 33.5159 6.39062 33.8844 6.39062C34.3151 6.39062 34.7089 6.49537 35.0658 6.70487C35.4227 6.91437 35.704 7.19177 35.9096 7.53706C36.1152 7.19177 36.3946 6.91437 36.7476 6.70487C37.1046 6.49537 37.4964 6.39062 37.9232 6.39062C38.3616 6.39062 38.7592 6.49731 39.1162 6.71069C39.4731 6.92019 39.7563 7.20341 39.9658 7.56034C40.1792 7.91726 40.2859 8.31493 40.2859 8.75333V12.373H39.3082V8.98611C39.3082 8.69901 39.2384 8.43326 39.0987 8.18884C38.959 7.94442 38.7709 7.7485 38.5342 7.60107C38.2975 7.45364 38.0357 7.37993 37.7486 7.37993C37.4615 7.37993 37.1996 7.44977 36.9629 7.58943C36.7263 7.72522 36.5381 7.91532 36.3985 8.15974C36.2588 8.40028 36.189 8.67574 36.189 8.98611V12.373H35.2113V8.98611C35.2113 8.67574 35.1414 8.40028 35.0018 8.15974C34.8621 7.91532 34.672 7.72522 34.4315 7.58943C34.1948 7.44977 33.9329 7.37993 33.6458 7.37993C33.3626 7.37993 33.1007 7.45364 32.8602 7.60107C32.6236 7.7485 32.4354 7.94442 32.2957 8.18884C32.1561 8.43326 32.0862 8.69901 32.0862 8.98611V12.373H31.1085ZM41.52 12.373V3.64382H42.4976V12.373H41.52ZM43.8955 6.55357H44.8732V12.373H43.8955V6.55357ZM44.396 5.60499C44.2408 5.60499 44.1108 5.55455 44.0061 5.45368C43.9013 5.35281 43.8489 5.22672 43.8489 5.07542C43.8489 4.92411 43.9013 4.79802 44.0061 4.69715C44.1108 4.59628 44.2388 4.54584 44.3901 4.54584C44.5415 4.54584 44.6695 4.59628 44.7742 4.69715C44.879 4.79802 44.9314 4.92411 44.9314 5.07542C44.9314 5.22672 44.879 5.35281 44.7742 5.45368C44.6734 5.55455 44.5473 5.60499 44.396 5.60499ZM51.3813 8.75333V12.373H50.4037V8.96865C50.4037 8.6738 50.3319 8.4061 50.1884 8.16556C50.0448 7.92502 49.8528 7.73492 49.6122 7.59525C49.3717 7.4517 49.104 7.37993 48.8091 7.37993C48.5182 7.37993 48.2505 7.4517 48.006 7.59525C47.7655 7.73492 47.5735 7.92502 47.4299 8.16556C47.2864 8.4061 47.2146 8.6738 47.2146 8.96865V12.373H46.2369V6.55357H47.2146V7.281C47.4202 7.00942 47.6802 6.7941 47.9944 6.63504C48.3087 6.47209 48.6501 6.39062 49.0186 6.39062C49.4532 6.39062 49.8489 6.49731 50.2058 6.71069C50.5666 6.92019 50.8518 7.20341 51.0613 7.56034C51.2747 7.91726 51.3813 8.31493 51.3813 8.75333ZM54.9921 12.5244C54.4567 12.5244 53.9678 12.3866 53.5256 12.1112C53.0872 11.8357 52.736 11.4671 52.4722 11.0055C52.2123 10.5399 52.0823 10.0259 52.0823 9.46331C52.0823 9.03654 52.158 8.63888 52.3093 8.27031C52.4606 7.89787 52.6682 7.57197 52.932 7.29264C53.1997 7.00942 53.51 6.78828 53.8631 6.62922C54.2161 6.47015 54.5925 6.39062 54.9921 6.39062C55.4305 6.39062 55.832 6.47985 56.1967 6.65832C56.5653 6.8329 56.8795 7.07732 57.1395 7.39157C57.4033 7.70582 57.5992 8.07051 57.7272 8.48563C57.8591 8.90076 57.9076 9.34498 57.8727 9.81829H53.124C53.1706 10.1481 53.2792 10.4429 53.4499 10.7029C53.6206 10.9589 53.8379 11.1626 54.1017 11.3139C54.3694 11.4652 54.6662 11.5428 54.9921 11.5467C55.3412 11.5467 55.6574 11.4574 55.9406 11.279C56.2239 11.0966 56.4528 10.8483 56.6273 10.5341L57.6225 10.7669C57.3897 11.2829 57.0386 11.7057 56.5691 12.0355C56.0997 12.3614 55.574 12.5244 54.9921 12.5244ZM53.0949 9.05012H56.8892C56.8582 8.72423 56.7534 8.42744 56.575 8.15974C56.3965 7.88817 56.1695 7.67091 55.8941 7.50796C55.6186 7.34501 55.318 7.26354 54.9921 7.26354C54.6662 7.26354 54.3674 7.34307 54.0959 7.50214C53.8243 7.66121 53.5993 7.87653 53.4208 8.1481C53.2462 8.4158 53.1376 8.71647 53.0949 9.05012ZM65.7154 6.55357H66.7512L63.568 15.2828H62.5321L63.5854 12.373L61.4962 6.55357H62.567L64.0743 11.0287L65.7154 6.55357ZM70.0636 12.5244C69.5282 12.5244 69.0394 12.3866 68.5971 12.1112C68.1587 11.8357 67.8076 11.4671 67.5438 11.0055C67.2838 10.5399 67.1539 10.0259 67.1539 9.46331C67.1539 9.03654 67.2295 8.63888 67.3808 8.27031C67.5321 7.89787 67.7397 7.57197 68.0035 7.29264C68.2712 7.00942 68.5816 6.78828 68.9346 6.62922C69.2877 6.47015 69.664 6.39062 70.0636 6.39062C70.599 6.39062 71.0859 6.52835 71.5243 6.8038C71.9666 7.07926 72.3177 7.44977 72.5776 7.91532C72.8414 8.38088 72.9734 8.89688 72.9734 9.46331C72.9734 9.88619 72.8977 10.2819 72.7464 10.6505C72.5951 11.019 72.3856 11.3449 72.1179 11.6282C71.8541 11.9075 71.5456 12.1267 71.1926 12.2858C70.8434 12.4448 70.4671 12.5244 70.0636 12.5244ZM70.0636 11.5467C70.4283 11.5467 70.7561 11.4516 71.0471 11.2615C71.342 11.0675 71.5728 10.8134 71.7396 10.4992C71.9103 10.181 71.9957 9.83575 71.9957 9.46331C71.9957 9.0831 71.9084 8.73393 71.7338 8.4158C71.5631 8.09767 71.3323 7.84355 71.0413 7.65345C70.7503 7.46334 70.4244 7.36829 70.0636 7.36829C69.6989 7.36829 69.3711 7.46528 69.0801 7.65927C68.7891 7.84937 68.5583 8.10349 68.3876 8.42162C68.2169 8.73975 68.1315 9.08698 68.1315 9.46331C68.1315 9.85127 68.2188 10.2043 68.3934 10.5225C68.568 10.8367 68.8027 11.0869 69.0976 11.2732C69.3924 11.4555 69.7144 11.5467 70.0636 11.5467ZM73.624 10.1616V6.55357H74.6016V9.94632C74.6016 10.2412 74.6734 10.5089 74.8169 10.7494C74.9605 10.9899 75.1525 11.182 75.3931 11.3255C75.6375 11.4652 75.9052 11.535 76.1962 11.535C76.491 11.535 76.7568 11.4652 76.9934 11.3255C77.234 11.182 77.426 10.9899 77.5696 10.7494C77.7131 10.5089 77.7849 10.2412 77.7849 9.94632V6.55357H78.7626L78.7684 12.373H77.7907L77.7849 11.634C77.5793 11.9055 77.3193 12.1228 77.0051 12.2858C76.6908 12.4448 76.3513 12.5244 75.9867 12.5244C75.5521 12.5244 75.1545 12.4196 74.7937 12.2101C74.4367 11.9967 74.1516 11.7116 73.9382 11.3546C73.7287 10.9977 73.624 10.6 73.624 10.1616ZM79.9376 12.373V6.55357H80.9153V7.281C81.1209 7.00942 81.3809 6.7941 81.6951 6.63504C82.0094 6.47209 82.3508 6.39062 82.7193 6.39062C82.9444 6.39062 83.1616 6.41972 83.3711 6.47791L82.9754 7.45558C82.8163 7.40515 82.6612 7.37993 82.5098 7.37993C82.2189 7.37993 81.9512 7.4517 81.7068 7.59525C81.4662 7.73492 81.2742 7.92502 81.1306 8.16556C80.9871 8.4061 80.9153 8.6738 80.9153 8.96865V12.373H79.9376ZM89.5743 12.373H88.585L86.6355 6.55357H87.5899L89.0913 10.9938L90.5753 6.55357H91.5821L93.0718 10.9938L94.5558 6.55357H95.5218L93.5723 12.373H92.5772L91.0699 7.89205L89.5743 12.373ZM98.7973 12.5244C98.2619 12.5244 97.7731 12.3866 97.3308 12.1112C96.8924 11.8357 96.5413 11.4671 96.2775 11.0055C96.0175 10.5399 95.8876 10.0259 95.8876 9.46331C95.8876 9.03654 95.9632 8.63888 96.1145 8.27031C96.2658 7.89787 96.4734 7.57197 96.7372 7.29264C97.0049 7.00942 97.3153 6.78828 97.6683 6.62922C98.0214 6.47015 98.3977 6.39062 98.7973 6.39062C99.3327 6.39062 99.8196 6.52835 100.258 6.8038C100.7 7.07926 101.051 7.44977 101.311 7.91532C101.575 8.38088 101.707 8.89688 101.707 9.46331C101.707 9.88619 101.631 10.2819 101.48 10.6505C101.329 11.019 101.119 11.3449 100.852 11.6282C100.588 11.9075 100.279 12.1267 99.9263 12.2858C99.5771 12.4448 99.2008 12.5244 98.7973 12.5244ZM98.7973 11.5467C99.162 11.5467 99.4898 11.4516 99.7808 11.2615C100.076 11.0675 100.306 10.8134 100.473 10.4992C100.644 10.181 100.729 9.83575 100.729 9.46331C100.729 9.0831 100.642 8.73393 100.467 8.4158C100.297 8.09767 100.066 7.84355 99.775 7.65345C99.484 7.46334 99.1581 7.36829 98.7973 7.36829C98.4326 7.36829 98.1048 7.46528 97.8138 7.65927C97.5228 7.84937 97.292 8.10349 97.1213 8.42162C96.9506 8.73975 96.8652 9.08698 96.8652 9.46331C96.8652 9.85127 96.9525 10.2043 97.1271 10.5225C97.3017 10.8367 97.5364 11.0869 97.8313 11.2732C98.1261 11.4555 98.4481 11.5467 98.7973 11.5467ZM102.67 12.373V6.55357H103.648V7.281C103.853 7.00942 104.113 6.7941 104.427 6.63504C104.742 6.47209 105.083 6.39062 105.452 6.39062C105.677 6.39062 105.894 6.41972 106.103 6.47791L105.708 7.45558C105.549 7.40515 105.394 7.37993 105.242 7.37993C104.951 7.37993 104.684 7.4517 104.439 7.59525C104.199 7.73492 104.007 7.92502 103.863 8.16556C103.719 8.4061 103.648 8.6738 103.648 8.96865V12.373H102.67ZM111.493 12.373H110.37L108.822 9.7019L107.751 10.9822V12.373H106.773V3.64382H107.751V9.46331L110.189 6.55357H111.464L109.485 8.91046L111.493 12.373ZM113.948 5.11615V6.55357H115.653V7.53124H113.948V12.373H112.97V7.53124H112.219V6.55357H112.97V5.11615C112.97 4.81742 113.042 4.54778 113.185 4.30724C113.333 4.06283 113.529 3.86884 113.773 3.7253C114.021 3.57787 114.293 3.50416 114.588 3.50416C114.805 3.50416 115.017 3.54877 115.222 3.638C115.428 3.72336 115.61 3.85139 115.769 4.02209L115.071 4.71461C115.017 4.64089 114.945 4.58464 114.856 4.54584C114.77 4.50317 114.681 4.48183 114.588 4.48183C114.413 4.48183 114.262 4.5439 114.134 4.66805C114.01 4.7922 113.948 4.94157 113.948 5.11615ZM116.662 12.373V3.64382H117.639V12.373H116.662ZM121.541 12.5244C121.006 12.5244 120.517 12.3866 120.075 12.1112C119.636 11.8357 119.285 11.4671 119.021 11.0055C118.761 10.5399 118.631 10.0259 118.631 9.46331C118.631 9.03654 118.707 8.63888 118.858 8.27031C119.01 7.89787 119.217 7.57197 119.481 7.29264C119.749 7.00942 120.059 6.78828 120.412 6.62922C120.765 6.47015 121.141 6.39062 121.541 6.39062C122.076 6.39062 122.563 6.52835 123.002 6.8038C123.444 7.07926 123.795 7.44977 124.055 7.91532C124.319 8.38088 124.451 8.89688 124.451 9.46331C124.451 9.88619 124.375 10.2819 124.224 10.6505C124.072 11.019 123.863 11.3449 123.595 11.6282C123.331 11.9075 123.023 12.1267 122.67 12.2858C122.321 12.4448 121.945 12.5244 121.541 12.5244ZM121.541 11.5467C121.906 11.5467 122.234 11.4516 122.525 11.2615C122.819 11.0675 123.05 10.8134 123.217 10.4992C123.388 10.181 123.473 9.83575 123.473 9.46331C123.473 9.0831 123.386 8.73393 123.211 8.4158C123.041 8.09767 122.81 7.84355 122.519 7.65345C122.228 7.46334 121.902 7.36829 121.541 7.36829C121.176 7.36829 120.849 7.46528 120.558 7.65927C120.267 7.84937 120.036 8.10349 119.865 8.42162C119.694 8.73975 119.609 9.08698 119.609 9.46331C119.609 9.85127 119.696 10.2043 119.871 10.5225C120.045 10.8367 120.28 11.0869 120.575 11.2732C120.87 11.4555 121.192 11.5467 121.541 11.5467ZM127.753 12.373H126.764L124.814 6.55357H125.769L127.27 10.9938L128.754 6.55357H129.761L131.251 10.9938L132.735 6.55357H133.701L131.751 12.373H130.756L129.249 7.89205L127.753 12.373ZM142.22 6.55357H143.198V12.373H142.22L142.18 11.3896C141.997 11.7271 141.745 12.0006 141.423 12.2101C141.105 12.4196 140.725 12.5244 140.282 12.5244C139.856 12.5244 139.456 12.4448 139.084 12.2858C138.711 12.1228 138.381 11.8997 138.094 11.6165C137.811 11.3294 137.59 10.9996 137.431 10.6272C137.272 10.2548 137.192 9.85321 137.192 9.42257C137.192 9.00745 137.27 8.6156 137.425 8.24703C137.58 7.87847 137.796 7.55646 138.071 7.281C138.35 7.00166 138.672 6.7844 139.037 6.62922C139.402 6.47015 139.794 6.39062 140.213 6.39062C140.67 6.39062 141.072 6.49925 141.417 6.71651C141.762 6.92989 142.042 7.20729 142.255 7.5487L142.22 6.55357ZM140.265 11.5758C140.649 11.5758 140.981 11.4827 141.26 11.2964C141.543 11.1063 141.761 10.8503 141.912 10.5283C142.067 10.2063 142.145 9.85127 142.145 9.46331C142.145 9.06758 142.067 8.71065 141.912 8.39252C141.757 8.07051 141.537 7.81639 141.254 7.63017C140.975 7.44007 140.645 7.34501 140.265 7.34501C139.881 7.34501 139.532 7.44007 139.217 7.63017C138.903 7.82027 138.653 8.07633 138.467 8.39834C138.284 8.71647 138.193 9.07146 138.193 9.46331C138.193 9.85515 138.288 10.2121 138.478 10.5341C138.668 10.8522 138.921 11.1063 139.235 11.2964C139.549 11.4827 139.892 11.5758 140.265 11.5758ZM149.506 8.75333V12.373H148.528V8.96865C148.528 8.6738 148.456 8.4061 148.313 8.16556C148.169 7.92502 147.977 7.73492 147.736 7.59525C147.496 7.4517 147.228 7.37993 146.933 7.37993C146.642 7.37993 146.375 7.4517 146.13 7.59525C145.89 7.73492 145.698 7.92502 145.554 8.16556C145.411 8.4061 145.339 8.6738 145.339 8.96865V12.373H144.361V6.55357H145.339V7.281C145.544 7.00942 145.804 6.7941 146.119 6.63504C146.433 6.47209 146.774 6.39062 147.143 6.39062C147.577 6.39062 147.973 6.49731 148.33 6.71069C148.691 6.92019 148.976 7.20341 149.185 7.56034C149.399 7.91726 149.506 8.31493 149.506 8.75333ZM155.24 3.64382H156.218V12.373H155.24V11.3837C155.043 11.7251 154.777 12.0006 154.443 12.2101C154.109 12.4196 153.718 12.5244 153.268 12.5244C152.845 12.5244 152.449 12.4448 152.08 12.2858C151.712 12.1267 151.386 11.9075 151.103 11.6282C150.823 11.3449 150.604 11.019 150.445 10.6505C150.286 10.2819 150.207 9.88619 150.207 9.46331C150.207 9.04042 150.286 8.6447 150.445 8.27613C150.604 7.90368 150.823 7.57779 151.103 7.29846C151.386 7.01524 151.712 6.7941 152.08 6.63504C152.449 6.47597 152.845 6.39644 153.268 6.39644C153.718 6.39644 154.109 6.50119 154.443 6.71069C154.777 6.92019 155.043 7.19565 155.24 7.53706V3.64382ZM153.279 11.5758C153.663 11.5758 153.995 11.4827 154.274 11.2964C154.558 11.1063 154.775 10.8503 154.926 10.5283C155.081 10.2063 155.159 9.85127 155.159 9.46331C155.159 9.06758 155.081 8.71065 154.926 8.39252C154.771 8.07051 154.552 7.81639 154.269 7.63017C153.989 7.44007 153.659 7.34501 153.279 7.34501C152.895 7.34501 152.546 7.44007 152.232 7.63017C151.921 7.82027 151.673 8.07633 151.487 8.39834C151.301 8.71647 151.207 9.07146 151.207 9.46331C151.207 9.85515 151.303 10.2121 151.493 10.5341C151.683 10.8522 151.935 11.1063 152.249 11.2964C152.563 11.4827 152.907 11.5758 153.279 11.5758ZM163.425 7.53124H162.104L162.098 12.373H161.12L161.126 7.53124H160.125V6.55357H161.126L161.12 4.72625H162.098L162.104 6.55357H163.425V7.53124ZM164.468 12.373V6.55357H165.446V7.281C165.651 7.00942 165.911 6.7941 166.225 6.63504C166.54 6.47209 166.881 6.39062 167.25 6.39062C167.475 6.39062 167.692 6.41972 167.901 6.47791L167.506 7.45558C167.347 7.40515 167.191 7.37993 167.04 7.37993C166.749 7.37993 166.481 7.4517 166.237 7.59525C165.996 7.73492 165.804 7.92502 165.661 8.16556C165.517 8.4061 165.446 8.6738 165.446 8.96865V12.373H164.468ZM173 6.55357H173.978V12.373H173L172.959 11.3896C172.777 11.7271 172.525 12.0006 172.203 12.2101C171.884 12.4196 171.504 12.5244 171.062 12.5244C170.635 12.5244 170.236 12.4448 169.863 12.2858C169.491 12.1228 169.161 11.8997 168.874 11.6165C168.591 11.3294 168.37 10.9996 168.21 10.6272C168.051 10.2548 167.972 9.85321 167.972 9.42257C167.972 9.00745 168.049 8.6156 168.205 8.24703C168.36 7.87847 168.575 7.55646 168.851 7.281C169.13 7.00166 169.452 6.7844 169.817 6.62922C170.181 6.47015 170.573 6.39062 170.992 6.39062C171.45 6.39062 171.852 6.49925 172.197 6.71651C172.542 6.92989 172.821 7.20729 173.035 7.5487L173 6.55357ZM171.045 11.5758C171.429 11.5758 171.76 11.4827 172.04 11.2964C172.323 11.1063 172.54 10.8503 172.691 10.5283C172.847 10.2063 172.924 9.85127 172.924 9.46331C172.924 9.06758 172.847 8.71065 172.691 8.39252C172.536 8.07051 172.317 7.81639 172.034 7.63017C171.755 7.44007 171.425 7.34501 171.045 7.34501C170.66 7.34501 170.311 7.44007 169.997 7.63017C169.683 7.82027 169.433 8.07633 169.246 8.39834C169.064 8.71647 168.973 9.07146 168.973 9.46331C168.973 9.85515 169.068 10.2121 169.258 10.5341C169.448 10.8522 169.7 11.1063 170.014 11.2964C170.329 11.4827 170.672 11.5758 171.045 11.5758ZM179.037 10.8367L179.91 11.3081C179.646 11.6766 179.31 11.9715 178.903 12.1926C178.499 12.4138 178.061 12.5244 177.588 12.5244C177.052 12.5244 176.563 12.3866 176.121 12.1112C175.683 11.8357 175.332 11.4671 175.068 11.0055C174.808 10.5399 174.678 10.0259 174.678 9.46331C174.678 9.03654 174.754 8.63888 174.905 8.27031C175.056 7.89787 175.264 7.57197 175.528 7.29264C175.795 7.00942 176.106 6.78828 176.459 6.62922C176.812 6.47015 177.188 6.39062 177.588 6.39062C178.061 6.39062 178.499 6.50119 178.903 6.72233C179.31 6.94347 179.646 7.24026 179.91 7.61271L179.037 8.08409C178.85 7.85519 178.629 7.67866 178.373 7.55452C178.117 7.43037 177.855 7.36829 177.588 7.36829C177.227 7.36829 176.899 7.46528 176.604 7.65927C176.313 7.84937 176.082 8.10349 175.912 8.42162C175.741 8.73975 175.656 9.08698 175.656 9.46331C175.656 9.83963 175.741 10.1869 175.912 10.505C176.086 10.8192 176.319 11.0714 176.61 11.2615C176.905 11.4516 177.231 11.5467 177.588 11.5467C177.875 11.5467 178.144 11.4807 178.397 11.3488C178.649 11.2169 178.862 11.0462 179.037 10.8367ZM185.578 12.373H184.454L182.906 9.7019L181.836 10.9822V12.373H180.858V3.64382H181.836V9.46331L184.274 6.55357H185.548L183.57 8.91046L185.578 12.373ZM190.485 15.2828H189.508V6.55357H190.485V7.5487C190.683 7.20729 190.947 6.93183 191.277 6.72233C191.606 6.50895 191.998 6.40226 192.452 6.40226C192.875 6.40226 193.271 6.48179 193.639 6.64086C194.012 6.79992 194.338 7.02106 194.617 7.30428C194.896 7.58361 195.116 7.90756 195.275 8.27613C195.434 8.6447 195.513 9.04042 195.513 9.46331C195.513 9.88619 195.434 10.2839 195.275 10.6563C195.116 11.0287 194.896 11.3566 194.617 11.6398C194.338 11.9191 194.012 12.1383 193.639 12.2974C193.271 12.4565 192.875 12.536 192.452 12.536C191.998 12.536 191.606 12.4312 191.277 12.2217C190.947 12.0084 190.683 11.731 190.485 11.3896V15.2828ZM192.441 7.35083C192.064 7.35083 191.734 7.44589 191.451 7.63599C191.168 7.82609 190.949 8.08021 190.794 8.39834C190.642 8.71647 190.567 9.07146 190.567 9.46331C190.567 9.85127 190.642 10.2063 190.794 10.5283C190.949 10.8503 191.166 11.1063 191.445 11.2964C191.729 11.4865 192.06 11.5816 192.441 11.5816C192.817 11.5816 193.162 11.4885 193.476 11.3023C193.791 11.1122 194.043 10.858 194.233 10.5399C194.423 10.2179 194.518 9.85903 194.518 9.46331C194.518 9.07534 194.425 8.72229 194.239 8.40416C194.053 8.08215 193.802 7.82609 193.488 7.63599C193.174 7.44589 192.825 7.35083 192.441 7.35083ZM196.486 12.373V6.55357H197.464V7.281C197.67 7.00942 197.93 6.7941 198.244 6.63504C198.558 6.47209 198.9 6.39062 199.268 6.39062C199.493 6.39062 199.71 6.41972 199.92 6.47791L199.524 7.45558C199.365 7.40515 199.21 7.37993 199.059 7.37993C198.768 7.37993 198.5 7.4517 198.256 7.59525C198.015 7.73492 197.823 7.92502 197.679 8.16556C197.536 8.4061 197.464 8.6738 197.464 8.96865V12.373H196.486ZM202.9 12.5244C202.365 12.5244 201.876 12.3866 201.434 12.1112C200.995 11.8357 200.644 11.4671 200.38 11.0055C200.12 10.5399 199.99 10.0259 199.99 9.46331C199.99 9.03654 200.066 8.63888 200.217 8.27031C200.369 7.89787 200.576 7.57197 200.84 7.29264C201.108 7.00942 201.418 6.78828 201.771 6.62922C202.124 6.47015 202.5 6.39062 202.9 6.39062C203.435 6.39062 203.922 6.52835 204.361 6.8038C204.803 7.07926 205.154 7.44977 205.414 7.91532C205.678 8.38088 205.81 8.89688 205.81 9.46331C205.81 9.88619 205.734 10.2819 205.583 10.6505C205.432 11.019 205.222 11.3449 204.954 11.6282C204.691 11.9075 204.382 12.1267 204.029 12.2858C203.68 12.4448 203.304 12.5244 202.9 12.5244ZM202.9 11.5467C203.265 11.5467 203.593 11.4516 203.884 11.2615C204.178 11.0675 204.409 10.8134 204.576 10.4992C204.747 10.181 204.832 9.83575 204.832 9.46331C204.832 9.0831 204.745 8.73393 204.57 8.4158C204.4 8.09767 204.169 7.84355 203.878 7.65345C203.587 7.46334 203.261 7.36829 202.9 7.36829C202.535 7.36829 202.208 7.46528 201.917 7.65927C201.626 7.84937 201.395 8.10349 201.224 8.42162C201.053 8.73975 200.968 9.08698 200.968 9.46331C200.968 9.85127 201.055 10.2043 201.23 10.5225C201.404 10.8367 201.639 11.0869 201.934 11.2732C202.229 11.4555 202.551 11.5467 202.9 11.5467ZM211.284 6.55357H212.261V12.5593C212.261 12.9434 212.178 13.3003 212.011 13.6301C211.848 13.9637 211.627 14.2527 211.348 14.4972C211.068 14.7455 210.75 14.9375 210.393 15.0733C210.036 15.213 209.664 15.2828 209.276 15.2828C208.872 15.2828 208.483 15.1916 208.106 15.0093C207.73 14.8308 207.4 14.5903 207.117 14.2877C206.838 13.9889 206.636 13.6533 206.512 13.2809L207.408 12.8735C207.482 13.1412 207.614 13.3818 207.804 13.5951C207.998 13.8124 208.223 13.9831 208.479 14.1073C208.739 14.2353 209.004 14.2993 209.276 14.2993C209.532 14.2993 209.778 14.2547 210.015 14.1654C210.256 14.0762 210.471 13.9521 210.661 13.793C210.855 13.6378 211.006 13.4535 211.115 13.2401C211.227 13.0306 211.284 12.8037 211.284 12.5593V11.4012C211.086 11.7348 210.824 12.0064 210.498 12.2159C210.176 12.4215 209.8 12.5244 209.369 12.5244C208.958 12.5244 208.572 12.4448 208.211 12.2858C207.85 12.1267 207.534 11.9075 207.262 11.6282C206.991 11.3449 206.777 11.019 206.622 10.6505C206.467 10.2819 206.39 9.88619 206.39 9.46331C206.39 9.04042 206.467 8.6447 206.622 8.27613C206.777 7.90368 206.991 7.57779 207.262 7.29846C207.534 7.01524 207.85 6.7941 208.211 6.63504C208.572 6.47597 208.958 6.39644 209.369 6.39644C209.8 6.39644 210.176 6.49925 210.498 6.70487C210.824 6.91049 211.086 7.18207 211.284 7.5196V6.55357ZM209.375 11.5758C209.751 11.5758 210.077 11.4788 210.353 11.2848C210.632 11.0908 210.847 10.8328 210.999 10.5108C211.15 10.1888 211.226 9.83963 211.226 9.46331C211.226 9.07534 211.148 8.72229 210.993 8.40416C210.841 8.08215 210.626 7.82609 210.347 7.63599C210.071 7.44201 209.747 7.34501 209.375 7.34501C209.01 7.34501 208.677 7.44007 208.374 7.63017C208.071 7.82027 207.831 8.07633 207.652 8.39834C207.478 8.71647 207.39 9.07146 207.39 9.46331C207.39 9.85515 207.48 10.2121 207.658 10.5341C207.841 10.8522 208.081 11.1063 208.38 11.2964C208.682 11.4827 209.014 11.5758 209.375 11.5758ZM213.661 12.373V6.55357H214.638V7.281C214.844 7.00942 215.104 6.7941 215.418 6.63504C215.732 6.47209 216.074 6.39062 216.442 6.39062C216.667 6.39062 216.885 6.41972 217.094 6.47791L216.698 7.45558C216.539 7.40515 216.384 7.37993 216.233 7.37993C215.942 7.37993 215.674 7.4517 215.43 7.59525C215.189 7.73492 214.997 7.92502 214.854 8.16556C214.71 8.4061 214.638 8.6738 214.638 8.96865V12.373H213.661ZM220.074 12.5244C219.539 12.5244 219.05 12.3866 218.608 12.1112C218.169 11.8357 217.818 11.4671 217.555 11.0055C217.295 10.5399 217.165 10.0259 217.165 9.46331C217.165 9.03654 217.24 8.63888 217.392 8.27031C217.543 7.89787 217.75 7.57197 218.014 7.29264C218.282 7.00942 218.592 6.78828 218.945 6.62922C219.298 6.47015 219.675 6.39062 220.074 6.39062C220.513 6.39062 220.914 6.47985 221.279 6.65832C221.648 6.8329 221.962 7.07732 222.222 7.39157C222.486 7.70582 222.682 8.07051 222.81 8.48563C222.941 8.90076 222.99 9.34498 222.955 9.81829H218.206C218.253 10.1481 218.362 10.4429 218.532 10.7029C218.703 10.9589 218.92 11.1626 219.184 11.3139C219.452 11.4652 219.749 11.5428 220.074 11.5467C220.424 11.5467 220.74 11.4574 221.023 11.279C221.306 11.0966 221.535 10.8483 221.71 10.5341L222.705 10.7669C222.472 11.2829 222.121 11.7057 221.651 12.0355C221.182 12.3614 220.656 12.5244 220.074 12.5244ZM218.177 9.05012H221.972C221.941 8.72423 221.836 8.42744 221.657 8.15974C221.479 7.88817 221.252 7.67091 220.976 7.50796C220.701 7.34501 220.4 7.26354 220.074 7.26354C219.749 7.26354 219.45 7.34307 219.178 7.50214C218.907 7.66121 218.682 7.87653 218.503 8.1481C218.329 8.4158 218.22 8.71647 218.177 9.05012ZM225.733 12.4836C225.419 12.472 225.113 12.4138 224.814 12.309C224.519 12.2004 224.259 12.0549 224.034 11.8726C223.813 11.6863 223.652 11.473 223.551 11.2324L224.389 10.8716C224.447 11.0035 224.552 11.1277 224.703 11.2441C224.855 11.3605 225.029 11.4536 225.227 11.5234C225.425 11.5932 225.625 11.6282 225.826 11.6282C226.04 11.6282 226.24 11.5952 226.426 11.5292C226.612 11.4633 226.763 11.3663 226.88 11.2382C227 11.1063 227.06 10.9492 227.06 10.7669C227.06 10.5729 226.994 10.4216 226.862 10.313C226.734 10.2004 226.571 10.1131 226.374 10.0511C226.18 9.98512 225.982 9.92304 225.78 9.86485C225.38 9.76398 225.023 9.64371 224.709 9.50404C224.395 9.36049 224.147 9.18009 223.964 8.96283C223.786 8.74169 223.697 8.46042 223.697 8.11901C223.697 7.7582 223.795 7.44589 223.993 7.18207C224.195 6.91825 224.459 6.71457 224.785 6.57102C225.111 6.42748 225.46 6.3557 225.832 6.3557C226.302 6.3557 226.73 6.45657 227.118 6.65832C227.506 6.86006 227.795 7.13357 227.986 7.47886L227.2 7.9386C227.134 7.79893 227.033 7.67672 226.897 7.57197C226.761 7.46334 226.606 7.37799 226.432 7.31592C226.257 7.25384 226.079 7.22087 225.896 7.21699C225.671 7.20923 225.46 7.23832 225.262 7.30428C225.068 7.37023 224.911 7.4711 224.791 7.60689C224.674 7.7388 224.616 7.90368 224.616 8.10155C224.616 8.29553 224.678 8.44296 224.802 8.54383C224.93 8.6447 225.095 8.72617 225.297 8.78825C225.503 8.84644 225.726 8.91433 225.966 8.99193C226.319 9.10444 226.649 9.23441 226.955 9.38183C227.262 9.52926 227.508 9.71354 227.695 9.93468C227.885 10.1558 227.978 10.4293 227.974 10.7552C227.974 11.1122 227.867 11.4245 227.654 11.6922C227.44 11.956 227.163 12.1577 226.822 12.2974C226.484 12.4371 226.121 12.4991 225.733 12.4836ZM230.746 12.4836C230.432 12.472 230.125 12.4138 229.826 12.309C229.532 12.2004 229.272 12.0549 229.047 11.8726C228.825 11.6863 228.664 11.473 228.564 11.2324L229.402 10.8716C229.46 11.0035 229.565 11.1277 229.716 11.2441C229.867 11.3605 230.042 11.4536 230.24 11.5234C230.437 11.5932 230.637 11.6282 230.839 11.6282C231.052 11.6282 231.252 11.5952 231.438 11.5292C231.625 11.4633 231.776 11.3663 231.892 11.2382C232.013 11.1063 232.073 10.9492 232.073 10.7669C232.073 10.5729 232.007 10.4216 231.875 10.313C231.747 10.2004 231.584 10.1131 231.386 10.0511C231.192 9.98512 230.994 9.92304 230.792 9.86485C230.393 9.76398 230.036 9.64371 229.722 9.50404C229.407 9.36049 229.159 9.18009 228.977 8.96283C228.798 8.74169 228.709 8.46042 228.709 8.11901C228.709 7.7582 228.808 7.44589 229.006 7.18207C229.208 6.91825 229.471 6.71457 229.797 6.57102C230.123 6.42748 230.472 6.3557 230.845 6.3557C231.314 6.3557 231.743 6.45657 232.131 6.65832C232.519 6.86006 232.808 7.13357 232.998 7.47886L232.212 7.9386C232.146 7.79893 232.046 7.67672 231.91 7.57197C231.774 7.46334 231.619 7.37799 231.444 7.31592C231.27 7.25384 231.091 7.22087 230.909 7.21699C230.684 7.20923 230.472 7.23832 230.275 7.30428C230.081 7.37023 229.923 7.4711 229.803 7.60689C229.687 7.7388 229.629 7.90368 229.629 8.10155C229.629 8.29553 229.691 8.44296 229.815 8.54383C229.943 8.6447 230.108 8.72617 230.309 8.78825C230.515 8.84644 230.738 8.91433 230.979 8.99193C231.332 9.10444 231.661 9.23441 231.968 9.38183C232.274 9.52926 232.521 9.71354 232.707 9.93468C232.897 10.1558 232.99 10.4293 232.986 10.7552C232.986 11.1122 232.88 11.4245 232.666 11.6922C232.453 11.956 232.176 12.1577 231.834 12.2974C231.497 12.4371 231.134 12.4991 230.746 12.4836ZM239.34 12.5244C238.805 12.5244 238.316 12.3866 237.874 12.1112C237.435 11.8357 237.084 11.4671 236.82 11.0055C236.56 10.5399 236.43 10.0259 236.43 9.46331C236.43 9.03654 236.506 8.63888 236.657 8.27031C236.809 7.89787 237.016 7.57197 237.28 7.29264C237.548 7.00942 237.858 6.78828 238.211 6.62922C238.564 6.47015 238.94 6.39062 239.34 6.39062C239.778 6.39062 240.18 6.47985 240.545 6.65832C240.913 6.8329 241.228 7.07732 241.487 7.39157C241.751 7.70582 241.947 8.07051 242.075 8.48563C242.207 8.90076 242.256 9.34498 242.221 9.81829H237.472C237.519 10.1481 237.627 10.4429 237.798 10.7029C237.969 10.9589 238.186 11.1626 238.45 11.3139C238.717 11.4652 239.014 11.5428 239.34 11.5467C239.689 11.5467 240.005 11.4574 240.289 11.279C240.572 11.0966 240.801 10.8483 240.975 10.5341L241.97 10.7669C241.738 11.2829 241.387 11.7057 240.917 12.0355C240.448 12.3614 239.922 12.5244 239.34 12.5244ZM237.443 9.05012H241.237C241.206 8.72423 241.101 8.42744 240.923 8.15974C240.745 7.88817 240.518 7.67091 240.242 7.50796C239.967 7.34501 239.666 7.26354 239.34 7.26354C239.014 7.26354 238.715 7.34307 238.444 7.50214C238.172 7.66121 237.947 7.87653 237.769 8.1481C237.594 8.4158 237.486 8.71647 237.443 9.05012ZM244.602 5.11615V6.55357H246.307V7.53124H244.602V12.373H243.624V7.53124H242.874V6.55357H243.624V5.11615C243.624 4.81742 243.696 4.54778 243.84 4.30724C243.987 4.06283 244.183 3.86884 244.427 3.7253C244.676 3.57787 244.947 3.50416 245.242 3.50416C245.459 3.50416 245.671 3.54877 245.876 3.638C246.082 3.72336 246.264 3.85139 246.423 4.02209L245.725 4.71461C245.671 4.64089 245.599 4.58464 245.51 4.54584C245.424 4.50317 245.335 4.48183 245.242 4.48183C245.068 4.48183 244.916 4.5439 244.788 4.66805C244.664 4.7922 244.602 4.94157 244.602 5.11615ZM248.717 5.11615V6.55357H250.422V7.53124H248.717V12.373H247.739V7.53124H246.988V6.55357H247.739V5.11615C247.739 4.81742 247.811 4.54778 247.954 4.30724C248.102 4.06283 248.298 3.86884 248.542 3.7253C248.79 3.57787 249.062 3.50416 249.357 3.50416C249.574 3.50416 249.785 3.54877 249.991 3.638C250.197 3.72336 250.379 3.85139 250.538 4.02209L249.84 4.71461C249.785 4.64089 249.714 4.58464 249.624 4.54584C249.539 4.50317 249.45 4.48183 249.357 4.48183C249.182 4.48183 249.031 4.5439 248.903 4.66805C248.779 4.7922 248.717 4.94157 248.717 5.11615ZM253.786 12.5244C253.251 12.5244 252.762 12.3866 252.32 12.1112C251.882 11.8357 251.53 11.4671 251.267 11.0055C251.007 10.5399 250.877 10.0259 250.877 9.46331C250.877 9.03654 250.952 8.63888 251.104 8.27031C251.255 7.89787 251.463 7.57197 251.726 7.29264C251.994 7.00942 252.304 6.78828 252.657 6.62922C253.011 6.47015 253.387 6.39062 253.786 6.39062C254.322 6.39062 254.809 6.52835 255.247 6.8038C255.689 7.07926 256.041 7.44977 256.3 7.91532C256.564 8.38088 256.696 8.89688 256.696 9.46331C256.696 9.88619 256.621 10.2819 256.469 10.6505C256.318 11.019 256.108 11.3449 255.841 11.6282C255.577 11.9075 255.268 12.1267 254.915 12.2858C254.566 12.4448 254.19 12.5244 253.786 12.5244ZM253.786 11.5467C254.151 11.5467 254.479 11.4516 254.77 11.2615C255.065 11.0675 255.296 10.8134 255.462 10.4992C255.633 10.181 255.719 9.83575 255.719 9.46331C255.719 9.0831 255.631 8.73393 255.457 8.4158C255.286 8.09767 255.055 7.84355 254.764 7.65345C254.473 7.46334 254.147 7.36829 253.786 7.36829C253.422 7.36829 253.094 7.46528 252.803 7.65927C252.512 7.84937 252.281 8.10349 252.11 8.42162C251.94 8.73975 251.854 9.08698 251.854 9.46331C251.854 9.85127 251.942 10.2043 252.116 10.5225C252.291 10.8367 252.526 11.0869 252.82 11.2732C253.115 11.4555 253.437 11.5467 253.786 11.5467ZM257.659 12.373V6.55357H258.637V7.281C258.842 7.00942 259.102 6.7941 259.417 6.63504C259.731 6.47209 260.072 6.39062 260.441 6.39062C260.666 6.39062 260.883 6.41972 261.093 6.47791L260.697 7.45558C260.538 7.40515 260.383 7.37993 260.231 7.37993C259.94 7.37993 259.673 7.4517 259.428 7.59525C259.188 7.73492 258.996 7.92502 258.852 8.16556C258.709 8.4061 258.637 8.6738 258.637 8.96865V12.373H257.659ZM264.925 7.53124H263.604L263.598 12.373H262.62L262.626 7.53124H261.625V6.55357H262.626L262.62 4.72625H263.598L263.604 6.55357H264.925V7.53124ZM265.968 12.373V3.64382H266.945V12.373H265.968ZM270.847 12.5244C270.312 12.5244 269.823 12.3866 269.381 12.1112C268.942 11.8357 268.591 11.4671 268.327 11.0055C268.067 10.5399 267.937 10.0259 267.937 9.46331C267.937 9.03654 268.013 8.63888 268.164 8.27031C268.316 7.89787 268.523 7.57197 268.787 7.29264C269.055 7.00942 269.365 6.78828 269.718 6.62922C270.071 6.47015 270.448 6.39062 270.847 6.39062C271.286 6.39062 271.687 6.47985 272.052 6.65832C272.42 6.8329 272.735 7.07732 272.994 7.39157C273.258 7.70582 273.454 8.07051 273.582 8.48563C273.714 8.90076 273.763 9.34498 273.728 9.81829H268.979C269.026 10.1481 269.134 10.4429 269.305 10.7029C269.476 10.9589 269.693 11.1626 269.957 11.3139C270.224 11.4652 270.521 11.5428 270.847 11.5467C271.196 11.5467 271.512 11.4574 271.796 11.279C272.079 11.0966 272.308 10.8483 272.482 10.5341L273.478 10.7669C273.245 11.2829 272.894 11.7057 272.424 12.0355C271.955 12.3614 271.429 12.5244 270.847 12.5244ZM268.95 9.05012H272.744C272.713 8.72423 272.608 8.42744 272.43 8.15974C272.252 7.88817 272.025 7.67091 271.749 7.50796C271.474 7.34501 271.173 7.26354 270.847 7.26354C270.521 7.26354 270.222 7.34307 269.951 7.50214C269.679 7.66121 269.454 7.87653 269.276 8.1481C269.101 8.4158 268.993 8.71647 268.95 9.05012ZM276.506 12.4836C276.192 12.472 275.885 12.4138 275.587 12.309C275.292 12.2004 275.032 12.0549 274.807 11.8726C274.586 11.6863 274.425 11.473 274.324 11.2324L275.162 10.8716C275.22 11.0035 275.325 11.1277 275.476 11.2441C275.627 11.3605 275.802 11.4536 276 11.5234C276.198 11.5932 276.397 11.6282 276.599 11.6282C276.813 11.6282 277.012 11.5952 277.199 11.5292C277.385 11.4633 277.536 11.3663 277.653 11.2382C277.773 11.1063 277.833 10.9492 277.833 10.7669C277.833 10.5729 277.767 10.4216 277.635 10.313C277.507 10.2004 277.344 10.1131 277.146 10.0511C276.952 9.98512 276.754 9.92304 276.553 9.86485C276.153 9.76398 275.796 9.64371 275.482 9.50404C275.168 9.36049 274.919 9.18009 274.737 8.96283C274.559 8.74169 274.469 8.46042 274.469 8.11901C274.469 7.7582 274.568 7.44589 274.766 7.18207C274.968 6.91825 275.232 6.71457 275.558 6.57102C275.883 6.42748 276.233 6.3557 276.605 6.3557C277.074 6.3557 277.503 6.45657 277.891 6.65832C278.279 6.86006 278.568 7.13357 278.758 7.47886L277.973 7.9386C277.907 7.79893 277.806 7.67672 277.67 7.57197C277.534 7.46334 277.379 7.37799 277.204 7.31592C277.03 7.25384 276.851 7.22087 276.669 7.21699C276.444 7.20923 276.233 7.23832 276.035 7.30428C275.841 7.37023 275.684 7.4711 275.563 7.60689C275.447 7.7388 275.389 7.90368 275.389 8.10155C275.389 8.29553 275.451 8.44296 275.575 8.54383C275.703 8.6447 275.868 8.72617 276.07 8.78825C276.275 8.84644 276.498 8.91433 276.739 8.99193C277.092 9.10444 277.422 9.23441 277.728 9.38183C278.035 9.52926 278.281 9.71354 278.467 9.93468C278.657 10.1558 278.75 10.4293 278.747 10.7552C278.747 11.1122 278.64 11.4245 278.427 11.6922C278.213 11.956 277.936 12.1577 277.594 12.2974C277.257 12.4371 276.894 12.4991 276.506 12.4836ZM281.519 12.4836C281.204 12.472 280.898 12.4138 280.599 12.309C280.304 12.2004 280.044 12.0549 279.819 11.8726C279.598 11.6863 279.437 11.473 279.336 11.2324L280.174 10.8716C280.232 11.0035 280.337 11.1277 280.489 11.2441C280.64 11.3605 280.814 11.4536 281.012 11.5234C281.21 11.5932 281.41 11.6282 281.612 11.6282C281.825 11.6282 282.025 11.5952 282.211 11.5292C282.397 11.4633 282.549 11.3663 282.665 11.2382C282.785 11.1063 282.845 10.9492 282.845 10.7669C282.845 10.5729 282.779 10.4216 282.648 10.313C282.52 10.2004 282.357 10.1131 282.159 10.0511C281.965 9.98512 281.767 9.92304 281.565 9.86485C281.166 9.76398 280.809 9.64371 280.494 9.50404C280.18 9.36049 279.932 9.18009 279.749 8.96283C279.571 8.74169 279.482 8.46042 279.482 8.11901C279.482 7.7582 279.581 7.44589 279.779 7.18207C279.98 6.91825 280.244 6.71457 280.57 6.57102C280.896 6.42748 281.245 6.3557 281.617 6.3557C282.087 6.3557 282.516 6.45657 282.904 6.65832C283.292 6.86006 283.581 7.13357 283.771 7.47886L282.985 7.9386C282.919 7.79893 282.818 7.67672 282.682 7.57197C282.547 7.46334 282.391 7.37799 282.217 7.31592C282.042 7.25384 281.864 7.22087 281.682 7.21699C281.456 7.20923 281.245 7.23832 281.047 7.30428C280.853 7.37023 280.696 7.4711 280.576 7.60689C280.459 7.7388 280.401 7.90368 280.401 8.10155C280.401 8.29553 280.463 8.44296 280.587 8.54383C280.715 8.6447 280.88 8.72617 281.082 8.78825C281.288 8.84644 281.511 8.91433 281.751 8.99193C282.104 9.10444 282.434 9.23441 282.741 9.38183C283.047 9.52926 283.294 9.71354 283.48 9.93468C283.67 10.1558 283.763 10.4293 283.759 10.7552C283.759 11.1122 283.652 11.4245 283.439 11.6922C283.226 11.956 282.948 12.1577 282.607 12.2974C282.269 12.4371 281.907 12.4991 281.519 12.4836ZM284.756 12.373V3.64382H285.734V12.373H284.756ZM290.891 6.55357H291.927L288.743 15.2828H287.707L288.761 12.373L286.672 6.55357H287.742L289.25 11.0287L290.891 6.55357ZM41.9103 28.373H40.921L38.9714 22.5536H39.9258L41.4273 26.9938L42.9112 22.5536H43.918L45.4078 26.9938L46.8917 22.5536H47.8578L45.9083 28.373H44.9131L43.4059 23.892L41.9103 28.373ZM48.8 22.5536H49.7777V28.373H48.8V22.5536ZM49.3005 21.605C49.1453 21.605 49.0153 21.5546 48.9106 21.4537C48.8058 21.3528 48.7534 21.2267 48.7534 21.0754C48.7534 20.9241 48.8058 20.798 48.9106 20.6972C49.0153 20.5963 49.1433 20.5458 49.2946 20.5458C49.446 20.5458 49.574 20.5963 49.6787 20.6972C49.7835 20.798 49.8359 20.9241 49.8359 21.0754C49.8359 21.2267 49.7835 21.3528 49.6787 21.4537C49.5779 21.5546 49.4518 21.605 49.3005 21.605ZM54.19 23.5312H52.869L52.8632 28.373H51.8855L51.8913 23.5312H50.8904V22.5536H51.8913L51.8855 20.7262H52.8632L52.869 22.5536H54.19V23.5312ZM60.3777 24.7533V28.373H59.4V24.9686C59.4 24.6738 59.3282 24.4061 59.1847 24.1656C59.0411 23.925 58.8491 23.7349 58.6085 23.5953C58.368 23.4517 58.1003 23.3799 57.8055 23.3799C57.5145 23.3799 57.2468 23.4517 57.0024 23.5953C56.7618 23.7349 56.5698 23.925 56.4262 24.1656C56.2827 24.4061 56.2109 24.6738 56.2109 24.9686V28.373H55.2332V19.6438H56.2109V23.281C56.4165 23.0094 56.6765 22.7941 56.9907 22.635C57.305 22.4721 57.6464 22.3906 58.015 22.3906C58.4495 22.3906 58.8452 22.4973 59.2021 22.7107C59.5629 22.9202 59.8481 23.2034 60.0576 23.5603C60.271 23.9173 60.3777 24.3149 60.3777 24.7533ZM66.8981 28.5244C66.3627 28.5244 65.8739 28.3866 65.4316 28.1112C64.9932 27.8357 64.6421 27.4671 64.3783 27.0055C64.1184 26.5399 63.9884 26.0259 63.9884 25.4633C63.9884 25.0365 64.064 24.6389 64.2153 24.2703C64.3666 23.8979 64.5742 23.572 64.838 23.2926C65.1057 23.0094 65.4161 22.7883 65.7691 22.6292C66.1222 22.4702 66.4985 22.3906 66.8981 22.3906C67.4335 22.3906 67.9204 22.5283 68.3588 22.8038C68.8011 23.0793 69.1522 23.4498 69.4121 23.9153C69.676 24.3809 69.8079 24.8969 69.8079 25.4633C69.8079 25.8862 69.7322 26.2819 69.5809 26.6505C69.4296 27.019 69.2201 27.3449 68.9524 27.6282C68.6886 27.9075 68.3802 28.1267 68.0271 28.2858C67.6779 28.4448 67.3016 28.5244 66.8981 28.5244ZM66.8981 27.5467C67.2628 27.5467 67.5906 27.4516 67.8816 27.2615C68.1765 27.0675 68.4073 26.8134 68.5741 26.4992C68.7448 26.181 68.8302 25.8358 68.8302 25.4633C68.8302 25.0831 68.7429 24.7339 68.5683 24.4158C68.3976 24.0977 68.1668 23.8435 67.8758 23.6534C67.5848 23.4633 67.2589 23.3683 66.8981 23.3683C66.5334 23.3683 66.2056 23.4653 65.9146 23.6593C65.6237 23.8494 65.3928 24.1035 65.2221 24.4216C65.0514 24.7398 64.9661 25.087 64.9661 25.4633C64.9661 25.8513 65.0533 26.2043 65.2279 26.5225C65.4025 26.8367 65.6372 27.0869 65.9321 27.2732C66.2269 27.4555 66.549 27.5467 66.8981 27.5467ZM70.4585 26.1616V22.5536H71.4361V25.9463C71.4361 26.2412 71.5079 26.5089 71.6515 26.7494C71.795 26.9899 71.987 27.182 72.2276 27.3255C72.472 27.4652 72.7397 27.535 73.0307 27.535C73.3255 27.535 73.5913 27.4652 73.8279 27.3255C74.0685 27.182 74.2605 26.9899 74.4041 26.7494C74.5476 26.5089 74.6194 26.2412 74.6194 25.9463V22.5536H75.5971L75.6029 28.373H74.6252L74.6194 27.634C74.4138 27.9055 74.1538 28.1228 73.8396 28.2858C73.5253 28.4448 73.1859 28.5244 72.8212 28.5244C72.3867 28.5244 71.989 28.4196 71.6282 28.2101C71.2713 27.9967 70.9861 27.7116 70.7727 27.3546C70.5632 26.9977 70.4585 26.6 70.4585 26.1616ZM76.7721 28.373V22.5536H77.7498V23.281C77.9554 23.0094 78.2154 22.7941 78.5296 22.635C78.8439 22.4721 79.1853 22.3906 79.5539 22.3906C79.7789 22.3906 79.9961 22.4197 80.2056 22.4779L79.8099 23.4556C79.6508 23.4051 79.4957 23.3799 79.3444 23.3799C79.0534 23.3799 78.7857 23.4517 78.5413 23.5953C78.3007 23.7349 78.1087 23.925 77.9651 24.1656C77.8216 24.4061 77.7498 24.6738 77.7498 24.9686V28.373H76.7721ZM88.498 22.5536H89.4757V28.373H88.498L88.4573 27.3896C88.275 27.7271 88.0228 28.0006 87.7008 28.2101C87.3826 28.4196 87.0024 28.5244 86.5601 28.5244C86.1334 28.5244 85.7338 28.4448 85.3613 28.2858C84.9889 28.1228 84.6591 27.8997 84.372 27.6165C84.0888 27.3294 83.8677 26.9996 83.7086 26.6272C83.5495 26.2548 83.47 25.8532 83.47 25.4226C83.47 25.0074 83.5476 24.6156 83.7028 24.247C83.858 23.8785 84.0733 23.5565 84.3487 23.281C84.6281 23.0017 84.9501 22.7844 85.3148 22.6292C85.6795 22.4702 86.0713 22.3906 86.4903 22.3906C86.9481 22.3906 87.3497 22.4992 87.6949 22.7165C88.0402 22.9299 88.3196 23.2073 88.533 23.5487L88.498 22.5536ZM86.5427 27.5758C86.9268 27.5758 87.2585 27.4827 87.5378 27.2964C87.821 27.1063 88.0383 26.8503 88.1896 26.5283C88.3448 26.2063 88.4224 25.8513 88.4224 25.4633C88.4224 25.0676 88.3448 24.7107 88.1896 24.3925C88.0344 24.0705 87.8152 23.8164 87.532 23.6302C87.2527 23.4401 86.9229 23.345 86.5427 23.345C86.1586 23.345 85.8094 23.4401 85.4952 23.6302C85.1809 23.8203 84.9307 24.0763 84.7445 24.3983C84.5621 24.7165 84.471 25.0715 84.471 25.4633C84.471 25.8552 84.566 26.2121 84.7561 26.5341C84.9462 26.8522 85.1984 27.1063 85.5126 27.2964C85.8269 27.4827 86.1702 27.5758 86.5427 27.5758ZM90.7071 28.373V19.6438H91.6848V28.373H90.7071ZM93.0826 28.373V19.6438H94.0603V28.373H93.0826ZM95.4581 24.3925H99.1826V25.3702H95.4581V24.3925ZM100.584 22.5536H101.562V28.373H100.584V22.5536ZM101.085 21.605C100.93 21.605 100.8 21.5546 100.695 21.4537C100.59 21.3528 100.538 21.2267 100.538 21.0754C100.538 20.9241 100.59 20.798 100.695 20.6972C100.8 20.5963 100.928 20.5458 101.079 20.5458C101.23 20.5458 101.358 20.5963 101.463 20.6972C101.568 20.798 101.62 20.9241 101.62 21.0754C101.62 21.2267 101.568 21.3528 101.463 21.4537C101.362 21.5546 101.236 21.605 101.085 21.605ZM108.07 24.7533V28.373H107.092V24.9686C107.092 24.6738 107.021 24.4061 106.877 24.1656C106.734 23.925 106.542 23.7349 106.301 23.5953C106.06 23.4517 105.793 23.3799 105.498 23.3799C105.207 23.3799 104.939 23.4517 104.695 23.5953C104.454 23.7349 104.262 23.925 104.119 24.1656C103.975 24.4061 103.903 24.6738 103.903 24.9686V28.373H102.926V22.5536H103.903V23.281C104.109 23.0094 104.369 22.7941 104.683 22.635C104.997 22.4721 105.339 22.3906 105.707 22.3906C106.142 22.3906 106.538 22.4973 106.895 22.7107C107.255 22.9202 107.541 23.2034 107.75 23.5603C107.963 23.9173 108.07 24.3149 108.07 24.7533ZM109.234 24.3925H112.958V25.3702H109.234V24.3925ZM116.921 28.5244C116.385 28.5244 115.896 28.3866 115.454 28.1112C115.016 27.8357 114.665 27.4671 114.401 27.0055C114.141 26.5399 114.011 26.0259 114.011 25.4633C114.011 25.0365 114.087 24.6389 114.238 24.2703C114.389 23.8979 114.597 23.572 114.861 23.2926C115.128 23.0094 115.439 22.7883 115.792 22.6292C116.145 22.4702 116.521 22.3906 116.921 22.3906C117.456 22.3906 117.943 22.5283 118.381 22.8038C118.824 23.0793 119.175 23.4498 119.435 23.9153C119.698 24.3809 119.83 24.8969 119.83 25.4633C119.83 25.8862 119.755 26.2819 119.603 26.6505C119.452 27.019 119.243 27.3449 118.975 27.6282C118.711 27.9075 118.403 28.1267 118.05 28.2858C117.7 28.4448 117.324 28.5244 116.921 28.5244ZM116.921 27.5467C117.285 27.5467 117.613 27.4516 117.904 27.2615C118.199 27.0675 118.43 26.8134 118.597 26.4992C118.767 26.181 118.853 25.8358 118.853 25.4633C118.853 25.0831 118.765 24.7339 118.591 24.4158C118.42 24.0977 118.189 23.8435 117.898 23.6534C117.607 23.4633 117.281 23.3683 116.921 23.3683C116.556 23.3683 116.228 23.4653 115.937 23.6593C115.646 23.8494 115.415 24.1035 115.245 24.4216C115.074 24.7398 114.989 25.087 114.989 25.4633C114.989 25.8513 115.076 26.2043 115.25 26.5225C115.425 26.8367 115.66 27.0869 115.955 27.2732C116.249 27.4555 116.571 27.5467 116.921 27.5467ZM125.938 24.7533V28.373H124.96V24.9686C124.96 24.6738 124.888 24.4061 124.745 24.1656C124.601 23.925 124.409 23.7349 124.169 23.5953C123.928 23.4517 123.66 23.3799 123.366 23.3799C123.075 23.3799 122.807 23.4517 122.562 23.5953C122.322 23.7349 122.13 23.925 121.986 24.1656C121.843 24.4061 121.771 24.6738 121.771 24.9686V28.373H120.793V22.5536H121.771V23.281C121.977 23.0094 122.237 22.7941 122.551 22.635C122.865 22.4721 123.206 22.3906 123.575 22.3906C124.01 22.3906 124.405 22.4973 124.762 22.7107C125.123 22.9202 125.408 23.2034 125.618 23.5603C125.831 23.9173 125.938 24.3149 125.938 24.7533ZM129.548 28.5244C129.013 28.5244 128.524 28.3866 128.082 28.1112C127.644 27.8357 127.292 27.4671 127.029 27.0055C126.769 26.5399 126.639 26.0259 126.639 25.4633C126.639 25.0365 126.714 24.6389 126.866 24.2703C127.017 23.8979 127.225 23.572 127.488 23.2926C127.756 23.0094 128.066 22.7883 128.42 22.6292C128.773 22.4702 129.149 22.3906 129.548 22.3906C129.987 22.3906 130.388 22.4799 130.753 22.6583C131.122 22.8329 131.436 23.0773 131.696 23.3916C131.96 23.7058 132.156 24.0705 132.284 24.4856C132.416 24.9008 132.464 25.345 132.429 25.8183H127.68C127.727 26.1481 127.836 26.4429 128.006 26.7029C128.177 26.9589 128.394 27.1626 128.658 27.3139C128.926 27.4652 129.223 27.5428 129.548 27.5467C129.898 27.5467 130.214 27.4574 130.497 27.279C130.78 27.0966 131.009 26.8483 131.184 26.5341L132.179 26.7669C131.946 27.2829 131.595 27.7057 131.126 28.0355C130.656 28.3614 130.13 28.5244 129.548 28.5244ZM127.651 25.0501H131.446C131.415 24.7242 131.31 24.4274 131.131 24.1597C130.953 23.8882 130.726 23.6709 130.451 23.508C130.175 23.345 129.874 23.2635 129.548 23.2635C129.223 23.2635 128.924 23.3431 128.652 23.5021C128.381 23.6612 128.156 23.8765 127.977 24.1481C127.803 24.4158 127.694 24.7165 127.651 25.0501ZM139.3 23.5312H137.979L137.973 28.373H136.995L137.001 23.5312H136V22.5536H137.001L136.995 20.7262H137.973L137.979 22.5536H139.3V23.5312ZM144.874 22.5536H145.852V28.373H144.874L144.834 27.3896C144.651 27.7271 144.399 28.0006 144.077 28.2101C143.759 28.4196 143.379 28.5244 142.936 28.5244C142.51 28.5244 142.11 28.4448 141.738 28.2858C141.365 28.1228 141.035 27.8997 140.748 27.6165C140.465 27.3294 140.244 26.9996 140.085 26.6272C139.926 26.2548 139.846 25.8532 139.846 25.4226C139.846 25.0074 139.924 24.6156 140.079 24.247C140.234 23.8785 140.45 23.5565 140.725 23.281C141.004 23.0017 141.326 22.7844 141.691 22.6292C142.056 22.4702 142.448 22.3906 142.867 22.3906C143.324 22.3906 143.726 22.4992 144.071 22.7165C144.416 22.9299 144.696 23.2073 144.909 23.5487L144.874 22.5536ZM142.919 27.5758C143.303 27.5758 143.635 27.4827 143.914 27.2964C144.197 27.1063 144.415 26.8503 144.566 26.5283C144.721 26.2063 144.799 25.8513 144.799 25.4633C144.799 25.0676 144.721 24.7107 144.566 24.3925C144.411 24.0705 144.191 23.8164 143.908 23.6302C143.629 23.4401 143.299 23.345 142.919 23.345C142.535 23.345 142.186 23.4401 141.871 23.6302C141.557 23.8203 141.307 24.0763 141.121 24.3983C140.938 24.7165 140.847 25.0715 140.847 25.4633C140.847 25.8552 140.942 26.2121 141.132 26.5341C141.322 26.8522 141.575 27.1063 141.889 27.2964C142.203 27.4827 142.546 27.5758 142.919 27.5758ZM148.79 28.4836C148.476 28.472 148.169 28.4138 147.871 28.309C147.576 28.2004 147.316 28.0549 147.091 27.8726C146.87 27.6863 146.709 27.473 146.608 27.2324L147.446 26.8716C147.504 27.0035 147.609 27.1277 147.76 27.2441C147.911 27.3605 148.086 27.4536 148.284 27.5234C148.482 27.5932 148.681 27.6282 148.883 27.6282C149.097 27.6282 149.296 27.5952 149.483 27.5292C149.669 27.4633 149.82 27.3663 149.936 27.2382C150.057 27.1063 150.117 26.9492 150.117 26.7669C150.117 26.5729 150.051 26.4216 149.919 26.313C149.791 26.2004 149.628 26.1131 149.43 26.0511C149.236 25.9851 149.038 25.923 148.837 25.8649C148.437 25.764 148.08 25.6437 147.766 25.504C147.452 25.3605 147.203 25.1801 147.021 24.9628C146.842 24.7417 146.753 24.4604 146.753 24.119C146.753 23.7582 146.852 23.4459 147.05 23.1821C147.252 22.9183 147.516 22.7146 147.841 22.571C148.167 22.4275 148.517 22.3557 148.889 22.3557C149.358 22.3557 149.787 22.4566 150.175 22.6583C150.563 22.8601 150.852 23.1336 151.042 23.4789L150.257 23.9386C150.191 23.7989 150.09 23.6767 149.954 23.572C149.818 23.4633 149.663 23.378 149.488 23.3159C149.314 23.2538 149.135 23.2209 148.953 23.217C148.728 23.2092 148.517 23.2383 148.319 23.3043C148.125 23.3702 147.968 23.4711 147.847 23.6069C147.731 23.7388 147.673 23.9037 147.673 24.1015C147.673 24.2955 147.735 24.443 147.859 24.5438C147.987 24.6447 148.152 24.7262 148.354 24.7882C148.559 24.8464 148.782 24.9143 149.023 24.9919C149.376 25.1044 149.706 25.2344 150.012 25.3818C150.319 25.5293 150.565 25.7135 150.751 25.9347C150.941 26.1558 151.034 26.4293 151.031 26.7552C151.031 27.1122 150.924 27.4245 150.71 27.6922C150.497 27.956 150.22 28.1577 149.878 28.2974C149.541 28.4371 149.178 28.4991 148.79 28.4836ZM156.747 28.373H155.624L154.076 25.7019L153.005 26.9822V28.373H152.028V19.6438H153.005V25.4633L155.444 22.5536H156.718L154.739 24.9105L156.747 28.373ZM160.677 28.373V22.5536H161.655V23.281C161.861 23.0094 162.119 22.7941 162.429 22.635C162.743 22.4721 163.085 22.3906 163.453 22.3906C163.884 22.3906 164.278 22.4954 164.634 22.7049C164.991 22.9144 165.273 23.1918 165.478 23.5371C165.684 23.1918 165.963 22.9144 166.316 22.7049C166.673 22.4954 167.065 22.3906 167.492 22.3906C167.93 22.3906 168.328 22.4973 168.685 22.7107C169.042 22.9202 169.325 23.2034 169.535 23.5603C169.748 23.9173 169.855 24.3149 169.855 24.7533V28.373H168.877V24.9861C168.877 24.699 168.807 24.4333 168.667 24.1888C168.528 23.9444 168.34 23.7485 168.103 23.6011C167.866 23.4536 167.604 23.3799 167.317 23.3799C167.03 23.3799 166.768 23.4498 166.532 23.5894C166.295 23.7252 166.107 23.9153 165.967 24.1597C165.827 24.4003 165.758 24.6757 165.758 24.9861V28.373H164.78V24.9861C164.78 24.6757 164.71 24.4003 164.57 24.1597C164.431 23.9153 164.241 23.7252 164 23.5894C163.764 23.4498 163.502 23.3799 163.215 23.3799C162.931 23.3799 162.669 23.4536 162.429 23.6011C162.192 23.7485 162.004 23.9444 161.864 24.1888C161.725 24.4333 161.655 24.699 161.655 24.9861V28.373H160.677ZM175.586 22.5536H176.563V28.373H175.586L175.545 27.3896C175.363 27.7271 175.11 28.0006 174.788 28.2101C174.47 28.4196 174.09 28.5244 173.648 28.5244C173.221 28.5244 172.821 28.4448 172.449 28.2858C172.077 28.1228 171.747 27.8997 171.46 27.6165C171.176 27.3294 170.955 26.9996 170.796 26.6272C170.637 26.2548 170.558 25.8532 170.558 25.4226C170.558 25.0074 170.635 24.6156 170.79 24.247C170.946 23.8785 171.161 23.5565 171.436 23.281C171.716 23.0017 172.038 22.7844 172.402 22.6292C172.767 22.4702 173.159 22.3906 173.578 22.3906C174.036 22.3906 174.437 22.4992 174.783 22.7165C175.128 22.9299 175.407 23.2073 175.621 23.5487L175.586 22.5536ZM173.63 27.5758C174.014 27.5758 174.346 27.4827 174.625 27.2964C174.909 27.1063 175.126 26.8503 175.277 26.5283C175.432 26.2063 175.51 25.8513 175.51 25.4633C175.51 25.0676 175.432 24.7107 175.277 24.3925C175.122 24.0705 174.903 23.8164 174.62 23.6302C174.34 23.4401 174.011 23.345 173.63 23.345C173.246 23.345 172.897 23.4401 172.583 23.6302C172.269 23.8203 172.018 24.0763 171.832 24.3983C171.65 24.7165 171.559 25.0715 171.559 25.4633C171.559 25.8552 171.654 26.2121 171.844 26.5341C172.034 26.8522 172.286 27.1063 172.6 27.2964C172.915 27.4827 173.258 27.5758 173.63 27.5758ZM182.871 24.7533V28.373H181.893V24.9686C181.893 24.6738 181.821 24.4061 181.678 24.1656C181.534 23.925 181.342 23.7349 181.102 23.5953C180.861 23.4517 180.594 23.3799 180.299 23.3799C180.008 23.3799 179.74 23.4517 179.496 23.5953C179.255 23.7349 179.063 23.925 178.919 24.1656C178.776 24.4061 178.704 24.6738 178.704 24.9686V28.373H177.727V22.5536H178.704V23.281C178.91 23.0094 179.17 22.7941 179.484 22.635C179.798 22.4721 180.14 22.3906 180.508 22.3906C180.943 22.3906 181.338 22.4973 181.695 22.7107C182.056 22.9202 182.341 23.2034 182.551 23.5603C182.764 23.9173 182.871 24.3149 182.871 24.7533ZM188.6 22.5536H189.578V28.373H188.6L188.559 27.3896C188.377 27.7271 188.125 28.0006 187.803 28.2101C187.485 28.4196 187.104 28.5244 186.662 28.5244C186.235 28.5244 185.836 28.4448 185.463 28.2858C185.091 28.1228 184.761 27.8997 184.474 27.6165C184.191 27.3294 183.97 26.9996 183.811 26.6272C183.651 26.2548 183.572 25.8532 183.572 25.4226C183.572 25.0074 183.65 24.6156 183.805 24.247C183.96 23.8785 184.175 23.5565 184.451 23.281C184.73 23.0017 185.052 22.7844 185.417 22.6292C185.781 22.4702 186.173 22.3906 186.592 22.3906C187.05 22.3906 187.452 22.4992 187.797 22.7165C188.142 22.9299 188.421 23.2073 188.635 23.5487L188.6 22.5536ZM186.645 27.5758C187.029 27.5758 187.36 27.4827 187.64 27.2964C187.923 27.1063 188.14 26.8503 188.292 26.5283C188.447 26.2063 188.524 25.8513 188.524 25.4633C188.524 25.0676 188.447 24.7107 188.292 24.3925C188.136 24.0705 187.917 23.8164 187.634 23.6302C187.355 23.4401 187.025 23.345 186.645 23.345C186.261 23.345 185.911 23.4401 185.597 23.6302C185.283 23.8203 185.033 24.0763 184.846 24.3983C184.664 24.7165 184.573 25.0715 184.573 25.4633C184.573 25.8552 184.668 26.2121 184.858 26.5341C185.048 26.8522 185.3 27.1063 185.615 27.2964C185.929 27.4827 186.272 27.5758 186.645 27.5758ZM195.172 22.5536H196.15V28.5593C196.15 28.9434 196.066 29.3003 195.9 29.6301C195.737 29.9637 195.516 30.2527 195.236 30.4972C194.957 30.7455 194.639 30.9375 194.282 31.0733C193.925 31.213 193.552 31.2828 193.164 31.2828C192.761 31.2828 192.371 31.1916 191.995 31.0093C191.618 30.8308 191.289 30.5903 191.005 30.2877C190.726 29.9889 190.524 29.6533 190.4 29.2809L191.296 28.8735C191.37 29.1412 191.502 29.3818 191.692 29.5951C191.886 29.8124 192.111 29.9831 192.367 30.1073C192.627 30.2353 192.893 30.2993 193.164 30.2993C193.42 30.2993 193.667 30.2547 193.904 30.1654C194.144 30.0762 194.359 29.9521 194.549 29.793C194.743 29.6378 194.895 29.4535 195.003 29.2401C195.116 29.0306 195.172 28.8037 195.172 28.5593V27.4012C194.974 27.7348 194.712 28.0064 194.387 28.2159C194.065 28.4215 193.688 28.5244 193.258 28.5244C192.846 28.5244 192.46 28.4448 192.099 28.2858C191.739 28.1267 191.422 27.9075 191.151 27.6282C190.879 27.3449 190.666 27.019 190.511 26.6505C190.356 26.2819 190.278 25.8862 190.278 25.4633C190.278 25.0404 190.356 24.6447 190.511 24.2761C190.666 23.9037 190.879 23.5778 191.151 23.2985C191.422 23.0152 191.739 22.7941 192.099 22.635C192.46 22.476 192.846 22.3964 193.258 22.3964C193.688 22.3964 194.065 22.4992 194.387 22.7049C194.712 22.9105 194.974 23.1821 195.172 23.5196V22.5536ZM193.263 27.5758C193.64 27.5758 193.966 27.4788 194.241 27.2848C194.52 27.0908 194.736 26.8328 194.887 26.5108C195.038 26.1888 195.114 25.8396 195.114 25.4633C195.114 25.0753 195.036 24.7223 194.881 24.4042C194.73 24.0821 194.515 23.8261 194.235 23.636C193.96 23.442 193.636 23.345 193.263 23.345C192.899 23.345 192.565 23.4401 192.262 23.6302C191.96 23.8203 191.719 24.0763 191.541 24.3983C191.366 24.7165 191.279 25.0715 191.279 25.4633C191.279 25.8552 191.368 26.2121 191.547 26.5341C191.729 26.8522 191.97 27.1063 192.268 27.2964C192.571 27.4827 192.903 27.5758 193.263 27.5758ZM200.03 28.5244C199.495 28.5244 199.006 28.3866 198.564 28.1112C198.125 27.8357 197.774 27.4671 197.51 27.0055C197.25 26.5399 197.12 26.0259 197.12 25.4633C197.12 25.0365 197.196 24.6389 197.347 24.2703C197.499 23.8979 197.706 23.572 197.97 23.2926C198.238 23.0094 198.548 22.7883 198.901 22.6292C199.254 22.4702 199.631 22.3906 200.03 22.3906C200.469 22.3906 200.87 22.4799 201.235 22.6583C201.603 22.8329 201.918 23.0773 202.178 23.3916C202.441 23.7058 202.637 24.0705 202.765 24.4856C202.897 24.9008 202.946 25.345 202.911 25.8183H198.162C198.209 26.1481 198.317 26.4429 198.488 26.7029C198.659 26.9589 198.876 27.1626 199.14 27.3139C199.407 27.4652 199.704 27.5428 200.03 27.5467C200.379 27.5467 200.696 27.4574 200.979 27.279C201.262 27.0966 201.491 26.8483 201.665 26.5341L202.661 26.7669C202.428 27.2829 202.077 27.7057 201.607 28.0355C201.138 28.3614 200.612 28.5244 200.03 28.5244ZM198.133 25.0501H201.927C201.896 24.7242 201.792 24.4274 201.613 24.1597C201.435 23.8882 201.208 23.6709 200.932 23.508C200.657 23.345 200.356 23.2635 200.03 23.2635C199.704 23.2635 199.406 23.3431 199.134 23.5021C198.862 23.6612 198.637 23.8765 198.459 24.1481C198.284 24.4158 198.176 24.7165 198.133 25.0501ZM203.891 28.373V22.5536H204.869V23.281C205.075 23.0094 205.333 22.7941 205.643 22.635C205.957 22.4721 206.299 22.3906 206.667 22.3906C207.098 22.3906 207.492 22.4954 207.849 22.7049C208.206 22.9144 208.487 23.1918 208.693 23.5371C208.898 23.1918 209.177 22.9144 209.531 22.7049C209.887 22.4954 210.279 22.3906 210.706 22.3906C211.144 22.3906 211.542 22.4973 211.899 22.7107C212.256 22.9202 212.539 23.2034 212.749 23.5603C212.962 23.9173 213.069 24.3149 213.069 24.7533V28.373H212.091V24.9861C212.091 24.699 212.021 24.4333 211.882 24.1888C211.742 23.9444 211.554 23.7485 211.317 23.6011C211.08 23.4536 210.819 23.3799 210.531 23.3799C210.244 23.3799 209.983 23.4498 209.746 23.5894C209.509 23.7252 209.321 23.9153 209.181 24.1597C209.042 24.4003 208.972 24.6757 208.972 24.9861V28.373H207.994V24.9861C207.994 24.6757 207.924 24.4003 207.785 24.1597C207.645 23.9153 207.455 23.7252 207.214 23.5894C206.978 23.4498 206.716 23.3799 206.429 23.3799C206.146 23.3799 205.884 23.4536 205.643 23.6011C205.406 23.7485 205.218 23.9444 205.079 24.1888C204.939 24.4333 204.869 24.699 204.869 24.9861V28.373H203.891ZM216.682 28.5244C216.146 28.5244 215.657 28.3866 215.215 28.1112C214.777 27.8357 214.426 27.4671 214.162 27.0055C213.902 26.5399 213.772 26.0259 213.772 25.4633C213.772 25.0365 213.847 24.6389 213.999 24.2703C214.15 23.8979 214.358 23.572 214.621 23.2926C214.889 23.0094 215.2 22.7883 215.553 22.6292C215.906 22.4702 216.282 22.3906 216.682 22.3906C217.12 22.3906 217.522 22.4799 217.886 22.6583C218.255 22.8329 218.569 23.0773 218.829 23.3916C219.093 23.7058 219.289 24.0705 219.417 24.4856C219.549 24.9008 219.597 25.345 219.562 25.8183H214.814C214.86 26.1481 214.969 26.4429 215.139 26.7029C215.31 26.9589 215.527 27.1626 215.791 27.3139C216.059 27.4652 216.356 27.5428 216.682 27.5467C217.031 27.5467 217.347 27.4574 217.63 27.279C217.913 27.0966 218.142 26.8483 218.317 26.5341L219.312 26.7669C219.079 27.2829 218.728 27.7057 218.259 28.0355C217.789 28.3614 217.264 28.5244 216.682 28.5244ZM214.784 25.0501H218.579C218.548 24.7242 218.443 24.4274 218.264 24.1597C218.086 23.8882 217.859 23.6709 217.584 23.508C217.308 23.345 217.007 23.2635 216.682 23.2635C216.356 23.2635 216.057 23.3431 215.785 23.5021C215.514 23.6612 215.289 23.8765 215.11 24.1481C214.936 24.4158 214.827 24.7165 214.784 25.0501ZM225.687 24.7533V28.373H224.71V24.9686C224.71 24.6738 224.638 24.4061 224.494 24.1656C224.351 23.925 224.159 23.7349 223.918 23.5953C223.678 23.4517 223.41 23.3799 223.115 23.3799C222.824 23.3799 222.556 23.4517 222.312 23.5953C222.071 23.7349 221.879 23.925 221.736 24.1656C221.592 24.4061 221.521 24.6738 221.521 24.9686V28.373H220.543V22.5536H221.521V23.281C221.726 23.0094 221.986 22.7941 222.3 22.635C222.615 22.4721 222.956 22.3906 223.325 22.3906C223.759 22.3906 224.155 22.4973 224.512 22.7107C224.873 22.9202 225.158 23.2034 225.367 23.5603C225.581 23.9173 225.687 24.3149 225.687 24.7533ZM229.866 23.5312H228.545L228.539 28.373H227.561L227.567 23.5312H226.566V22.5536H227.567L227.561 20.7262H228.539L228.545 22.5536H229.866V23.5312ZM238.384 22.5536H239.361V28.373H238.384L238.343 27.3896C238.161 27.7271 237.909 28.0006 237.587 28.2101C237.268 28.4196 236.888 28.5244 236.446 28.5244C236.019 28.5244 235.62 28.4448 235.247 28.2858C234.875 28.1228 234.545 27.8997 234.258 27.6165C233.975 27.3294 233.753 26.9996 233.594 26.6272C233.435 26.2548 233.356 25.8532 233.356 25.4226C233.356 25.0074 233.433 24.6156 233.589 24.247C233.744 23.8785 233.959 23.5565 234.235 23.281C234.514 23.0017 234.836 22.7844 235.201 22.6292C235.565 22.4702 235.957 22.3906 236.376 22.3906C236.834 22.3906 237.235 22.4992 237.581 22.7165C237.926 22.9299 238.205 23.2073 238.419 23.5487L238.384 22.5536ZM236.428 27.5758C236.813 27.5758 237.144 27.4827 237.424 27.2964C237.707 27.1063 237.924 26.8503 238.075 26.5283C238.231 26.2063 238.308 25.8513 238.308 25.4633C238.308 25.0676 238.231 24.7107 238.075 24.3925C237.92 24.0705 237.701 23.8164 237.418 23.6302C237.138 23.4401 236.809 23.345 236.428 23.345C236.044 23.345 235.695 23.4401 235.381 23.6302C235.067 23.8203 234.816 24.0763 234.63 24.3983C234.448 24.7165 234.357 25.0715 234.357 25.4633C234.357 25.8552 234.452 26.2121 234.642 26.5341C234.832 26.8522 235.084 27.1063 235.398 27.2964C235.713 27.4827 236.056 27.5758 236.428 27.5758ZM241.502 31.2828H240.525V22.5536H241.502V23.5487C241.7 23.2073 241.964 22.9318 242.294 22.7223C242.624 22.5089 243.015 22.4023 243.469 22.4023C243.892 22.4023 244.288 22.4818 244.656 22.6409C245.029 22.7999 245.355 23.0211 245.634 23.3043C245.913 23.5836 246.133 23.9076 246.292 24.2761C246.451 24.6447 246.53 25.0404 246.53 25.4633C246.53 25.8862 246.451 26.2839 246.292 26.6563C246.133 27.0287 245.913 27.3566 245.634 27.6398C245.355 27.9191 245.029 28.1383 244.656 28.2974C244.288 28.4565 243.892 28.536 243.469 28.536C243.015 28.536 242.624 28.4312 242.294 28.2217C241.964 28.0084 241.7 27.731 241.502 27.3896V31.2828ZM243.458 23.3508C243.081 23.3508 242.752 23.4459 242.468 23.636C242.185 23.8261 241.966 24.0802 241.811 24.3983C241.659 24.7165 241.584 25.0715 241.584 25.4633C241.584 25.8513 241.659 26.2063 241.811 26.5283C241.966 26.8503 242.183 27.1063 242.463 27.2964C242.746 27.4865 243.077 27.5816 243.458 27.5816C243.834 27.5816 244.179 27.4885 244.494 27.3023C244.808 27.1122 245.06 26.858 245.25 26.5399C245.44 26.2179 245.535 25.859 245.535 25.4633C245.535 25.0753 245.442 24.7223 245.256 24.4042C245.07 24.0821 244.819 23.8261 244.505 23.636C244.191 23.4459 243.842 23.3508 243.458 23.3508ZM248.481 31.2828H247.503V22.5536H248.481V23.5487C248.679 23.2073 248.943 22.9318 249.273 22.7223C249.602 22.5089 249.994 22.4023 250.448 22.4023C250.871 22.4023 251.267 22.4818 251.635 22.6409C252.008 22.7999 252.334 23.0211 252.613 23.3043C252.892 23.5836 253.112 23.9076 253.271 24.2761C253.43 24.6447 253.509 25.0404 253.509 25.4633C253.509 25.8862 253.43 26.2839 253.271 26.6563C253.112 27.0287 252.892 27.3566 252.613 27.6398C252.334 27.9191 252.008 28.1383 251.635 28.2974C251.267 28.4565 250.871 28.536 250.448 28.536C249.994 28.536 249.602 28.4312 249.273 28.2217C248.943 28.0084 248.679 27.731 248.481 27.3896V31.2828ZM250.437 23.3508C250.06 23.3508 249.73 23.4459 249.447 23.636C249.164 23.8261 248.945 24.0802 248.79 24.3983C248.638 24.7165 248.563 25.0715 248.563 25.4633C248.563 25.8513 248.638 26.2063 248.79 26.5283C248.945 26.8503 249.162 27.1063 249.441 27.2964C249.725 27.4865 250.056 27.5816 250.437 27.5816C250.813 27.5816 251.158 27.4885 251.472 27.3023C251.787 27.1122 252.039 26.858 252.229 26.5399C252.419 26.2179 252.514 25.859 252.514 25.4633C252.514 25.0753 252.421 24.7223 252.235 24.4042C252.048 24.0821 251.798 23.8261 251.484 23.636C251.17 23.4459 250.821 23.3508 250.437 23.3508ZM254.745 28.5244C254.598 28.5244 254.471 28.472 254.367 28.3672C254.266 28.2625 254.215 28.1344 254.215 27.9831C254.215 27.8396 254.266 27.7154 254.367 27.6107C254.471 27.5059 254.598 27.4536 254.745 27.4536C254.896 27.4536 255.024 27.5059 255.129 27.6107C255.234 27.7154 255.286 27.8396 255.286 27.9831C255.286 28.1344 255.234 28.2625 255.129 28.3672C255.024 28.472 254.896 28.5244 254.745 28.5244Z" fill="black"/>
</svg>
