<svg width="84" height="16" viewBox="0 0 84 16" fill="none" xmlns="http://www.w3.org/2000/svg">
<path d="M4.032 12V2.112H0.176V0.719999H9.552V2.112H5.696V12H4.032ZM12.8189 12.144C12.1042 12.144 11.4802 11.9787 10.9469 11.648C10.4135 11.3173 9.99754 10.8373 9.69888 10.208C9.41088 9.57867 9.26688 8.832 9.26688 7.968C9.26688 7.09333 9.41088 6.34667 9.69888 5.728C9.99754 5.10933 10.4135 4.63467 10.9469 4.304C11.4802 3.96267 12.1042 3.792 12.8189 3.792C13.5229 3.792 14.1362 3.968 14.6589 4.32C15.1815 4.672 15.5282 5.152 15.6989 5.76H15.5229L15.6829 3.936H17.2509C17.2189 4.26667 17.1869 4.59733 17.1549 4.928C17.1335 5.248 17.1229 5.56267 17.1229 5.872V12H15.5069V10.208H15.6829C15.5122 10.8053 15.1602 11.28 14.6269 11.632C14.1042 11.9733 13.5015 12.144 12.8189 12.144ZM13.2189 10.88C13.9122 10.88 14.4669 10.6347 14.8829 10.144C15.3095 9.65333 15.5229 8.928 15.5229 7.968C15.5229 7.008 15.3095 6.288 14.8829 5.808C14.4669 5.31733 13.9122 5.072 13.2189 5.072C12.5149 5.072 11.9495 5.31733 11.5229 5.808C11.1069 6.288 10.8989 7.008 10.8989 7.968C10.8989 8.928 11.1069 9.65333 11.5229 10.144C11.9389 10.6347 12.5042 10.88 13.2189 10.88ZM22.2489 12.144C21.5769 12.144 20.9582 12.0587 20.3929 11.888C19.8275 11.7173 19.3582 11.4773 18.9849 11.168L19.4809 10.064C19.8755 10.3627 20.3129 10.5867 20.7929 10.736C21.2729 10.8853 21.7635 10.96 22.2649 10.96C22.8515 10.96 23.2942 10.8587 23.5929 10.656C23.8915 10.4427 24.0409 10.1547 24.0409 9.792C24.0409 9.51467 23.9449 9.29067 23.7529 9.12C23.5715 8.94933 23.2675 8.82133 22.8409 8.736L21.3049 8.432C20.6222 8.28267 20.1049 8.02667 19.7529 7.664C19.4009 7.30133 19.2249 6.83733 19.2249 6.272C19.2249 5.792 19.3529 5.36533 19.6089 4.992C19.8755 4.61867 20.2489 4.32533 20.7289 4.112C21.2195 3.89867 21.7902 3.792 22.4409 3.792C23.0382 3.792 23.5929 3.87733 24.1049 4.048C24.6169 4.21867 25.0435 4.464 25.3849 4.784L24.8729 5.856C24.5422 5.57867 24.1689 5.36533 23.7529 5.216C23.3369 5.056 22.9155 4.976 22.4889 4.976C21.8915 4.976 21.4489 5.088 21.1609 5.312C20.8729 5.536 20.7289 5.82933 20.7289 6.192C20.7289 6.46933 20.8142 6.69867 20.9849 6.88C21.1662 7.05067 21.4489 7.184 21.8329 7.28L23.3689 7.584C24.0942 7.73333 24.6382 7.97867 25.0009 8.32C25.3635 8.66133 25.5449 9.12 25.5449 9.696C25.5449 10.1973 25.4062 10.6347 25.1289 11.008C24.8515 11.3813 24.4675 11.664 23.9769 11.856C23.4862 12.048 22.9102 12.144 22.2489 12.144ZM27.4496 12V0.223999H29.0656V7.456H29.0976L32.6176 3.936H34.6176L30.3616 8.176L30.3776 7.456L34.9696 12H32.9216L29.0976 8.304H29.0656V12H27.4496ZM36.1093 12V0.719999H40.8133C42.0293 0.719999 42.9626 0.976 43.6133 1.488C44.2746 2 44.6053 2.72 44.6053 3.648C44.6053 4.34133 44.3973 4.92267 43.9813 5.392C43.5653 5.86133 42.9946 6.176 42.2693 6.336V6.096C43.1013 6.20267 43.7466 6.496 44.2053 6.976C44.6639 7.456 44.8933 8.09067 44.8933 8.88C44.8933 9.88267 44.5519 10.656 43.8693 11.2C43.1973 11.7333 42.2479 12 41.0213 12H36.1093ZM37.7253 10.704H40.8453C41.6026 10.704 42.1946 10.56 42.6213 10.272C43.0586 9.984 43.2773 9.49867 43.2773 8.816C43.2773 8.13333 43.0586 7.648 42.6213 7.36C42.1946 7.072 41.6026 6.928 40.8453 6.928H37.7253V10.704ZM37.7253 5.648H40.5573C41.3679 5.648 41.9759 5.49333 42.3813 5.184C42.7866 4.87467 42.9893 4.42133 42.9893 3.824C42.9893 3.22667 42.7866 2.77333 42.3813 2.464C41.9759 2.15467 41.3679 2 40.5573 2H37.7253V5.648ZM49.7824 12.144C48.8117 12.144 48.081 11.8827 47.5904 11.36C47.1104 10.8267 46.8704 10.0107 46.8704 8.912V3.936H48.4864V8.88C48.4864 9.552 48.625 10.048 48.9024 10.368C49.1797 10.688 49.601 10.848 50.1664 10.848C50.8064 10.848 51.3237 10.6347 51.7184 10.208C52.113 9.78133 52.3104 9.216 52.3104 8.512V3.936H53.9264V12H52.3584V10.272H52.5664C52.3424 10.8693 51.985 11.3333 51.4944 11.664C51.0037 11.984 50.433 12.144 49.7824 12.144ZM59.3814 12.144C58.6774 12.144 58.0534 11.9787 57.5094 11.648C56.976 11.3173 56.56 10.8373 56.2614 10.208C55.9734 9.57867 55.8294 8.832 55.8294 7.968C55.8294 7.09333 55.9734 6.34667 56.2614 5.728C56.56 5.10933 56.976 4.63467 57.5094 4.304C58.0534 3.96267 58.6774 3.792 59.3814 3.792C60.0747 3.792 60.6827 3.968 61.2054 4.32C61.7387 4.66133 62.0907 5.13067 62.2614 5.728H62.0694V0.223999H63.6854V12H62.0854V10.176H62.2774C62.096 10.784 61.744 11.264 61.2214 11.616C60.6987 11.968 60.0854 12.144 59.3814 12.144ZM59.7814 10.88C60.4747 10.88 61.0347 10.6347 61.4614 10.144C61.888 9.65333 62.1014 8.928 62.1014 7.968C62.1014 7.008 61.888 6.288 61.4614 5.808C61.0347 5.31733 60.4747 5.072 59.7814 5.072C59.0774 5.072 58.512 5.31733 58.0854 5.808C57.6694 6.288 57.4614 7.008 57.4614 7.968C57.4614 8.928 57.6694 9.65333 58.0854 10.144C58.512 10.6347 59.0774 10.88 59.7814 10.88ZM69.1314 12.144C68.4274 12.144 67.8034 11.9787 67.2594 11.648C66.726 11.3173 66.31 10.8373 66.0114 10.208C65.7234 9.57867 65.5794 8.832 65.5794 7.968C65.5794 7.09333 65.7234 6.34667 66.0114 5.728C66.31 5.10933 66.726 4.63467 67.2594 4.304C67.8034 3.96267 68.4274 3.792 69.1314 3.792C69.8247 3.792 70.4327 3.968 70.9554 4.32C71.4887 4.66133 71.8407 5.13067 72.0114 5.728H71.8194V0.223999H73.4354V12H71.8354V10.176H72.0274C71.846 10.784 71.494 11.264 70.9714 11.616C70.4487 11.968 69.8354 12.144 69.1314 12.144ZM69.5314 10.88C70.2247 10.88 70.7847 10.6347 71.2114 10.144C71.638 9.65333 71.8514 8.928 71.8514 7.968C71.8514 7.008 71.638 6.288 71.2114 5.808C70.7847 5.31733 70.2247 5.072 69.5314 5.072C68.8274 5.072 68.262 5.31733 67.8354 5.808C67.4194 6.288 67.2114 7.008 67.2114 7.968C67.2114 8.928 67.4194 9.65333 67.8354 10.144C68.262 10.6347 68.8274 10.88 69.5314 10.88ZM75.5534 15.632L75.1694 14.32C75.6707 14.2133 76.0867 14.0853 76.4174 13.936C76.7587 13.7867 77.0414 13.5893 77.2654 13.344C77.4894 13.1093 77.6814 12.8053 77.8414 12.432L78.2414 11.488L78.2094 12.144L74.7054 3.936H76.4334L79.1534 10.656H78.7214L81.4414 3.936H83.1054L79.4094 12.576C79.1747 13.1093 78.924 13.5573 78.6574 13.92C78.3907 14.2827 78.1027 14.576 77.7934 14.8C77.484 15.024 77.1427 15.2 76.7694 15.328C76.396 15.456 75.9907 15.5573 75.5534 15.632Z" fill="#2F2F2F"/>
</svg>
